<?xml version="1.0" standalone="no"?>
<!DOCTYPE svg PUBLIC "-//W3C//DTD SVG 20010904//EN"
 "http://www.w3.org/TR/2001/REC-SVG-20010904/DTD/svg10.dtd">
<svg version="1.0" xmlns="http://www.w3.org/2000/svg"
 width="260.000000pt" height="260.000000pt" viewBox="0 0 260.000000 260.000000"
 preserveAspectRatio="xMidYMid meet">
<metadata>
Created by potrace 1.11, written by Peter Selinger 2001-2013
</metadata>
<g transform="translate(0.000000,260.000000) scale(0.100000,-0.100000)"
fill="#000000" stroke="none">
<path d="M1110 2534 c-190 -24 -320 -69 -454 -158 -212 -141 -312 -330 -370
-696 -28 -176 -25 -607 4 -790 6 -36 13 -78 16 -95 11 -67 57 -214 89 -281
121 -252 387 -418 725 -451 166 -17 379 -4 553 32 49 10 160 55 224 91 324
181 448 491 447 1124 -1 408 -57 680 -178 863 -73 109 -202 215 -341 278 -74
33 -229 74 -325 85 -103 12 -286 11 -390 -2z m405 -119 c207 -31 387 -120 500
-247 95 -108 160 -290 189 -528 13 -112 16 -582 3 -640 -3 -14 -8 -50 -12 -80
-4 -30 -9 -62 -11 -70 -2 -8 -6 -31 -10 -50 -12 -69 -57 -196 -92 -263 -101
-194 -306 -321 -572 -353 -81 -10 -304 -11 -386 -2 -293 32 -508 178 -616 416
-34 75 -83 258 -93 348 -4 32 -10 88 -15 124 -8 72 -5 433 4 520 32 276 103
472 213 587 135 141 292 215 508 241 82 10 318 8 390 -3z"/>
<path d="M1252 2224 c-18 -12 -22 -25 -22 -69 0 -45 3 -53 18 -50 9 2 41 4 69
4 l53 1 -4 45 c-6 76 -59 108 -114 69z"/>
<path d="M1288 2065 c-2 -1 -23 -5 -48 -8 -88 -10 -192 -62 -242 -122 -35 -40
-57 -100 -58 -155 -2 -91 19 -145 78 -205 33 -33 144 -95 171 -95 7 0 11 28 9
83 -1 80 -2 84 -29 100 -37 21 -69 74 -69 115 0 94 93 157 224 152 34 -1 68
-2 76 -2 8 0 76 -13 150 -29 150 -31 187 -35 213 -24 33 14 19 49 -40 101 -81
71 -93 76 -207 80 -55 2 -129 6 -163 8 -34 2 -63 3 -65 1z"/>
<path d="M1254 1883 c-21 -4 -21 -6 -16 -216 3 -117 5 -258 6 -315 1 -74 4
-101 13 -98 6 3 28 8 47 12 20 3 39 10 41 15 3 4 8 137 11 296 3 158 7 290 10
294 8 13 -63 20 -112 12z"/>
<path d="M1409 1563 c-1 -5 -3 -39 -4 -76 -3 -61 -1 -70 22 -93 22 -22 25 -32
20 -67 -9 -63 -52 -93 -165 -113 -37 -7 -104 -36 -145 -62 -125 -82 -108 -251
32 -330 l41 -23 0 57 c0 40 -5 63 -17 76 -10 12 -17 35 -17 60 0 55 32 79 143
108 116 31 181 61 224 104 81 81 74 214 -17 294 -40 35 -115 77 -117 65z"/>
<path d="M1288 1048 l-38 -10 4 -146 c3 -81 5 -175 5 -209 l1 -63 40 0 40 0 1
43 c0 23 3 122 5 220 4 140 2 177 -8 176 -7 -1 -30 -6 -50 -11z"/>
<path d="M1390 801 c0 -29 6 -53 14 -60 22 -18 26 -63 8 -100 -29 -63 -120
-82 -224 -46 -45 15 -51 1 -15 -33 68 -64 225 -56 299 15 76 73 53 209 -43
258 -15 8 -30 15 -34 15 -3 0 -5 -22 -5 -49z"/>
<path d="M1265 414 c4 -62 18 -86 43 -77 26 10 32 24 32 81 l0 52 -39 0 -39 0
3 -56z"/>
</g>
</svg>
