<svg id="Layer_1" data-name="Layer 1" xmlns="http://www.w3.org/2000/svg" xmlns:xlink="http://www.w3.org/1999/xlink" viewBox="0 0 190.27 187.31"><defs><style>.cls-1{fill:none;}.cls-2{clip-path:url(#clip-path);}.cls-3{fill:#069c7d;}</style><clipPath id="clip-path" transform="translate(-143 -50.41)"><rect class="cls-1" x="143" y="50.41" width="190.27" height="187.31"/></clipPath></defs><title>calendar</title><g class="cls-2"><path class="cls-3" d="M322.13,224.34H291.69V193.89h30.44v30.44Zm0-34H291.69V159.87h30.44v30.44Zm0-34H291.69V125.85h30.44v30.44Zm-34,68H257.71V193.89h30.44v30.44Zm0-34H257.71V159.87h30.44v30.44Zm0-34H257.71V125.85h30.44v30.44Zm-34,68H223.72V193.89h30.44v30.44Zm0-34H223.72V159.87h30.44v30.44Zm0-34H223.72V125.85h30.44v30.44Zm-34,68H189.74V193.89h30.44v30.44Zm0-34H189.74V159.87h30.44v30.44Zm0-34H189.74V125.85h30.44v30.44Zm-34,68H155.76V193.89H186.2v30.44Zm0-34H155.76V159.87H186.2v30.44Zm0-34H155.76V125.85H186.2v30.44Zm147.07,81.43V66.08H307.88V88.67c0,8.43-8.43,8.43-8.43,8.43H289.36c-8.44,0-8.44-8.43-8.44-8.43V66.08h-83V88.67c0,8.43-8.44,8.43-8.44,8.43H179.41c-8.43,0-8.43-8.43-8.43-8.43V66.08H143V237.72H333.27Z" transform="translate(-143 -50.41)"/><path class="cls-3" d="M181.42,50.41s-5.87,0-5.87,5.87V86.59s0,5.87,5.87,5.87h7s5.87,0,5.87-5.87V56.28s0-5.87-5.87-5.87h-7Z" transform="translate(-143 -50.41)"/><path class="cls-3" d="M290.86,50.41s-5.87,0-5.87,5.87V86.59s0,5.87,5.87,5.87h7s5.87,0,5.87-5.87V56.28s0-5.87-5.87-5.87h-7Z" transform="translate(-143 -50.41)"/></g></svg>