<svg id="Layer_1" data-name="Layer 1" xmlns="http://www.w3.org/2000/svg" xmlns:xlink="http://www.w3.org/1999/xlink" viewBox="0 0 58.87 71.99"><defs><style>.cls-1{fill:none;}.cls-2{clip-path:url(#clip-path);}.cls-3{fill:#fff;}</style><clipPath id="clip-path" transform="translate(-209 -108.73)"><rect class="cls-1" x="209" y="108.73" width="58.87" height="71.99"/></clipPath></defs><title>lock</title><g class="cls-2"><path class="cls-3" d="M251.47,141.39c0-3.5,0-6.88,0-10.27,0-6.25-5.56-12-11.87-12.52-6.95-.6-13.74,4.83-14.09,11.81-0.17,3.43-.09,6.87-0.11,10.3a3.67,3.67,0,0,0,.13.68h25.94Zm-35.91,0c0-2.37,0-4.66,0-6.95,0-3.49,0-7,1.27-10.3,3.21-8.14,9-13.48,17.68-15,8.92-1.55,16.3,1.52,22,8.54a22.26,22.26,0,0,1,4.85,14.75c0,2.95,0,5.9,0,9l1.91,0.11a4.65,4.65,0,0,1,4.56,4.59q0.07,14.95,0,29.89a4.73,4.73,0,0,1-4.37,4.67,13.79,13.79,0,0,1-1.45,0c-15.7,0-31.39-.05-47.09,0-3.41,0-6-1.93-5.92-5.92,0.15-9.12,0-18.25,0-27.38,0-4.19,1.56-5.79,5.76-6,0.17,0,.34,0,0.75-0.09" transform="translate(-209 -108.73)"/></g></svg>