<svg id="Layer_1" data-name="Layer 1" xmlns="http://www.w3.org/2000/svg" xmlns:xlink="http://www.w3.org/1999/xlink" viewBox="0 0 434.75 77.53"><defs><style>.cls-1{fill:none;}.cls-2{clip-path:url(#clip-path);}.cls-3{fill:#fff;}</style><clipPath id="clip-path" transform="translate(-21 -106.19)"><rect class="cls-1" x="21" y="106.19" width="434.75" height="77.53"/></clipPath></defs><title>logo_W</title><g class="cls-2"><path class="cls-3" d="M169,147.95c-2.85.14-6.79-.14-7.33-2.81a12.51,12.51,0,0,1-7.65,2.95c-5,0-7.87-2.4-7.87-7.22,0-6.17,5.61-7.31,10.14-7.35l4.93,0v-2.63c0-3-1.63-3.4-5.21-3.4a29.82,29.82,0,0,0-6.88,1.13l-1.18-4.45a25.55,25.55,0,0,1,9.1-1.77c5.16,0,10,.77,10,7.17v12.25c0,1.32.95,1.54,2.26,1.59Zm-7.78-10.76-4.57.23c-4.07.18-4.71,1.5-4.71,3.09,0,2,1.13,2.86,3,2.86s5.3-1.5,6.29-1.77v-4.41Z" transform="translate(-21 -106.19)"/><path class="cls-3" d="M190.46,127.93a13.61,13.61,0,0,0-3.17-.27,7.66,7.66,0,0,0-5.84,2.77v17.29h-6V122.94h6v3.31a8.54,8.54,0,0,1,6.65-3.81,9.48,9.48,0,0,1,3.17.41Z" transform="translate(-21 -106.19)"/><polygon class="cls-3" points="112.86 41.53 112.86 27.78 97.7 27.78 97.7 41.53 91.59 41.53 91.59 9.49 97.7 9.49 97.7 23.02 112.86 23.02 112.86 9.49 118.97 9.49 118.97 41.53 112.86 41.53"/><path class="cls-3" d="M206.88,148.22c-4.71,0-9.55.14-9.55-7.85V127.48h-3.62v-4.54h3.62v-5.08h5.93v5.08h7.65v4.54h-7.65v12.84c0,2.58.81,2.86,3.53,2.86a38.14,38.14,0,0,0,4.75-.5l0.68,4.72a23.21,23.21,0,0,1-5.34.81" transform="translate(-21 -106.19)"/><path class="cls-3" d="M248.24,147.72V132.65c0-3.4-.68-5.22-3.89-5.22-2,0-4.57,1.32-6,2.13a13.76,13.76,0,0,1,.14,2.36v15.79h-5.93V132.65c0-3.58-.72-5.13-3.89-5.13-2.13,0-4.57,1.36-5.84,2v18.15h-6V122.94h6v2.59c1.49-1,4.48-3.27,8-3.27,3.71,0,5.93,1.45,6.92,3.67,1.9-1.49,5-3.67,8.65-3.67,7.74,0,7.83,5.54,7.83,9.71v15.74h-6Z" transform="translate(-21 -106.19)"/><path class="cls-3" d="M282.58,147.95c-2.85.14-6.79-.14-7.33-2.81a12.49,12.49,0,0,1-7.65,2.95c-5,0-7.88-2.4-7.88-7.22,0-6.17,5.61-7.31,10.14-7.35l4.93,0v-2.63c0-3-1.63-3.4-5.21-3.4a29.78,29.78,0,0,0-6.88,1.13l-1.18-4.45a25.54,25.54,0,0,1,9.1-1.77c5.16,0,10,.77,10,7.17v12.25c0,1.32,1,1.54,2.26,1.59Zm-7.78-10.76-4.57.23c-4.07.18-4.71,1.5-4.71,3.09,0,2,1.13,2.86,3,2.86s5.29-1.5,6.29-1.77v-4.41Z" transform="translate(-21 -106.19)"/><path class="cls-3" d="M305.48,147.72V132.65c0-3.58-.68-5.22-4-5.22-2.49,0-5.2,1.5-6.38,2.13v18.15h-6V122.94h6v2.59c1.67-1.18,4.52-3.27,8.28-3.27,7.56,0,8.05,4.63,8.05,9.71v15.74h-5.93Z" transform="translate(-21 -106.19)"/><path class="cls-3" d="M335.25,147.72V132.65c0-3.58-.67-5.22-4-5.22-2.49,0-5.2,1.5-6.38,2.13v18.15h-6V122.94h6v2.59c1.68-1.18,4.53-3.27,8.28-3.27,7.56,0,8.05,4.63,8.05,9.71v15.74h-5.93Z" transform="translate(-21 -106.19)"/><path class="cls-3" d="M358.24,148a29.44,29.44,0,0,1-9.78-1.27V113.46h5.93v10.16a17.38,17.38,0,0,1,5.75-1.23c7,0,11.13,3.68,11.13,11.85,0,10.57-6.29,13.8-13,13.8M359.1,127a20.35,20.35,0,0,0-4.71,1.13v14.75a21.38,21.38,0,0,0,4,.36c4.48,0,6.83-3.58,6.83-8.62,0-4.86-1.36-7.62-6.11-7.62" transform="translate(-21 -106.19)"/><path class="cls-3" d="M392.4,147.72V145c-1.67,1.18-4.8,3.31-8.42,3.31-7.42,0-8-4.68-8-9.76V122.94h5.93v15c0,3.58.64,5.22,4,5.22,2.35,0,5.34-1.54,6.52-2.18v-18h5.88v24.78H392.4Z" transform="translate(-21 -106.19)"/><path class="cls-3" d="M422.31,147.72V132.65c0-3.58-.68-5.22-4-5.22-2.49,0-5.2,1.5-6.38,2.13v18.15h-6V122.94h6v2.59c1.68-1.18,4.52-3.27,8.28-3.27,7.56,0,8.05,4.63,8.05,9.71v15.74h-5.93Z" transform="translate(-21 -106.19)"/><path class="cls-3" d="M449.82,147.72v-2a8.89,8.89,0,0,1-5.93,2.27c-4.75,0-10.77-2-10.77-12.93,0-8.44,5.65-12.93,12.71-12.93a15,15,0,0,1,4,.45V113.5h5.93v34.22h-5.93Zm0-20.29a16.62,16.62,0,0,0-3.94-.41c-4.93,0-6.88,3.54-6.88,8.21,0,5.94,2.62,7.85,5.88,7.85a12.2,12.2,0,0,0,4.94-1.59V127.43Z" transform="translate(-21 -106.19)"/><path class="cls-3" d="M74.65,117.69c-4.37-4.57-10.4-7.83-21.67-7.83s-17,3.25-21.33,7.93c-4.84,5.21-6.75,15.13-6.75,27.32s2.23,21.81,6.75,26.88c4.18,4.68,9.88,8.05,21.33,8.05,11.27,0,17.14-3,21.46-7.63,4.61-5,6.73-15.12,6.73-27.42s-1.58-22.1-6.52-27.31M53,183.72c-11.3,0-18-3.07-23.09-7.59-6.65-5.88-8.9-17.14-8.9-31s2.27-25.34,9-31.28c5.12-4.54,11.77-7.63,23-7.63,11.05,0,17.58,3,22.73,7.34,7.12,6,9.25,17.36,9.25,31.57,0,14-2.27,25.33-9.06,31.2-5.11,4.42-11.73,7.42-22.92,7.42" transform="translate(-21 -106.19)"/><path class="cls-3" d="M51.24,146.52c0-1-.44-18.62-0.44-19.41a7.35,7.35,0,0,1,4-.14c0,0.82-.32,18.48-0.33,18.71-0.74.29-2.39,0.63-3.18,0.84" transform="translate(-21 -106.19)"/><path class="cls-3" d="M51.62,166c0-.25-0.25-12.65-0.26-12.86a30.61,30.61,0,0,1,3-.83c0,0.34-.25,13.26-0.26,13.55a5,5,0,0,1-2.45.14" transform="translate(-21 -106.19)"/><path class="cls-3" d="M54,170.75c0,0.32-.07,3.15-0.07,3.2a1.1,1.1,0,1,1-2.18,0c0-.05-0.08-2.8-0.07-3.25a12.39,12.39,0,0,0,2.32.09" transform="translate(-21 -106.19)"/><path class="cls-3" d="M54.85,119.85s0-2,0-2.27a2,2,0,0,0-2.18-1.78,1.93,1.93,0,0,0-2,1.78c0,0.21,0,1.89,0,2.45a20.38,20.38,0,0,1,4.15-.17" transform="translate(-21 -106.19)"/><path class="cls-3" d="M50.08,160.44c-2.65-1-4.83-2.88-4.83-6.07,0-4.31,4-6,7.95-6.86,3.37-.74,4.28-1.89,4.28-3.79a2.28,2.28,0,0,0-1.55-2.3c0-.84.08-4,0.09-4.87,3.7,1.57,6,3.68,6,7,0,4.89-4,6.39-8,7.41-2.62.67-5.07,1-5.07,3.63A2.54,2.54,0,0,0,50,156.84c0,0.55.08,2.81,0.08,3.59" transform="translate(-21 -106.19)"/><path class="cls-3" d="M55.57,162.08a2.26,2.26,0,0,1,1.17,2.12,3.65,3.65,0,0,1-3.6,3.35c-4,0-4.46-1.2-4.87-.93,0,1.63,2.52,2.73,4.85,2.73,3.5,0,6.46-1.84,6.46-5.39,0-2.65-1.63-4.16-3.92-5.13,0,1-.07,2.4-0.08,3.25" transform="translate(-21 -106.19)"/><path class="cls-3" d="M49.65,139.51c-4.66-1.65-8-4.13-8-9.32,0-5.51,6-9,11.58-9,2,0,4.89.27,5.85,0.35a8.66,8.66,0,0,1,3.66.28c1.83,0.47,2.81,2.39,4.44,3.29a1.19,1.19,0,0,1,.29,1.2,1.06,1.06,0,0,1-.8,1c-4.05,0-7.9-2.05-13.58-2.05-3.14,0-6.55,1.42-6.55,4.81,0,2,1.2,3.2,2.93,4.09,0,0.81.12,5,.12,5.27" transform="translate(-21 -106.19)"/><path class="cls-3" d="M120.16,175.55a3.17,3.17,0,0,1-.33,1.5,2.92,2.92,0,0,1-.91,1,4,4,0,0,1-1.36.6,6.67,6.67,0,0,1-1.64.2,7.84,7.84,0,0,1-1.26-.09,9.49,9.49,0,0,1-1-.21,4.74,4.74,0,0,1-.71-0.25l-0.37-.18L113,177l0.43,0.19c0.17,0.08.38,0.16,0.62,0.24a5.5,5.5,0,0,0,.82.19,6,6,0,0,0,1,.08,5.23,5.23,0,0,0,1.08-.11,3,3,0,0,0,.92-0.35,1.83,1.83,0,0,0,.64-0.64,1.88,1.88,0,0,0,.24-1,1.75,1.75,0,0,0-.43-1.23,4.32,4.32,0,0,0-1.09-.84,13.86,13.86,0,0,0-1.41-.68,7.91,7.91,0,0,1-1.41-.76,4,4,0,0,1-1.09-1.08,2.84,2.84,0,0,1-.43-1.63,2.8,2.8,0,0,1,.28-1.29,2.57,2.57,0,0,1,.77-0.9,3.3,3.3,0,0,1,1.13-.53,5.31,5.31,0,0,1,1.36-.17,9.62,9.62,0,0,1,1.2.07c0.35,0,.64.1,0.89,0.15a5.08,5.08,0,0,1,.6.17l0.32,0.14L119,168.13a5.35,5.35,0,0,0-.9-0.29,6.79,6.79,0,0,0-1.61-.15,5,5,0,0,0-.9.08,2.1,2.1,0,0,0-.74.27,1.4,1.4,0,0,0-.49.52,1.68,1.68,0,0,0-.18.82,1.55,1.55,0,0,0,.44,1.13,4.58,4.58,0,0,0,1.11.81q0.66,0.36,1.45.7a8.38,8.38,0,0,1,1.45.8,4.25,4.25,0,0,1,1.11,1.11,2.8,2.8,0,0,1,.44,1.62" transform="translate(-21 -106.19)"/><polygon class="cls-3" points="107.54 61.62 107.54 72.51 106.18 72.51 106.18 61.62 102.06 61.62 102.06 60.46 111.66 60.46 111.66 61.62 107.54 61.62"/><path class="cls-3" d="M143,178.7l-1.57-4.53h-4.94l-1.76,4.53h-1.36l4.74-12h2.15l4.17,12H143Zm-3.22-9.34-0.66-1.93-0.75,1.93-1.45,3.71H141Z" transform="translate(-21 -106.19)"/><path class="cls-3" d="M157.85,178.89a3,3,0,0,1-.55-0.09,3.09,3.09,0,0,1-.68-0.27,4.56,4.56,0,0,1-.79-0.55,6.2,6.2,0,0,1-.86-0.91l-2.45-3-0.48.05-0.51,0h-1.65v4.6h-1.38v-12h3.92a4.26,4.26,0,0,1,2.84.89,3.44,3.44,0,0,1,1,2.78,3.7,3.7,0,0,1-.58,2.05,3.55,3.55,0,0,1-1.81,1.35l1.88,2.27a5.78,5.78,0,0,0,1.33,1.22,4,4,0,0,0,1,.52Zm-3-8.48a2.61,2.61,0,0,0-.68-2,3.08,3.08,0,0,0-2.13-.62h-2.16V173h1.75a6.21,6.21,0,0,0,1.3-.13,2.75,2.75,0,0,0,1-.43,2,2,0,0,0,.66-0.79,2.75,2.75,0,0,0,.24-1.21" transform="translate(-21 -106.19)"/><path class="cls-3" d="M162.36,166.65h1.36v12h-1.36v-12Zm6.88,12-5.09-6.24v-0.31l4.82-5.51h1.72l-5,5.57,5.38,6.47h-1.82Z" transform="translate(-21 -106.19)"/><polygon class="cls-3" points="160.8 61.57 160.8 66.24 166.12 66.24 166.12 67.36 160.8 67.36 160.8 72.51 159.44 72.51 159.44 60.46 166.49 60.46 166.49 61.57 160.8 61.57"/><path class="cls-3" d="M201.34,174.15a5.48,5.48,0,0,1-.44,2.37,3.9,3.9,0,0,1-2.67,2.2,6.94,6.94,0,0,1-1.64.21,8.29,8.29,0,0,1-1.74-.19,4.33,4.33,0,0,1-1.56-.66,3.47,3.47,0,0,1-1.12-1.32,4.73,4.73,0,0,1-.43-2.14v-8h1.4v7.84a3.79,3.79,0,0,0,.3,1.62,2.55,2.55,0,0,0,.78,1,2.89,2.89,0,0,0,1.1.49,5.79,5.79,0,0,0,1.26.14,5.22,5.22,0,0,0,1.32-.16,2.61,2.61,0,0,0,1.85-1.69,5,5,0,0,0,.27-1.8v-7.43h1.31v7.5Zm-6.7-8-1-1,1-1,1,1Zm3.68,0-1-1,1-1,1,1Z" transform="translate(-21 -106.19)"/><path class="cls-3" d="M216.49,178.89a3,3,0,0,1-.55-0.09,3.12,3.12,0,0,1-.68-0.27,4.53,4.53,0,0,1-.79-0.55,6.2,6.2,0,0,1-.86-0.91l-2.45-3-0.48.05-0.51,0h-1.65v4.6h-1.38v-12h3.92a4.26,4.26,0,0,1,2.84.89,3.44,3.44,0,0,1,1,2.78,3.7,3.7,0,0,1-.58,2.05,3.54,3.54,0,0,1-1.81,1.35l1.87,2.27a5.8,5.8,0,0,0,1.33,1.22,4,4,0,0,0,1,.52Zm-3-8.48a2.61,2.61,0,0,0-.68-2,3.08,3.08,0,0,0-2.13-.62h-2.16V173h1.76a6.21,6.21,0,0,0,1.29-.13,2.74,2.74,0,0,0,1-.43,2,2,0,0,0,.66-0.79,2.75,2.75,0,0,0,.24-1.21" transform="translate(-21 -106.19)"/><path class="cls-3" d="M234.21,178.7l-1.57-4.53H227.7l-1.76,4.53h-1.36l4.74-12h2.15l4.17,12h-1.43Zm-5.74-12.56-1-1,1-1,1,1Zm2.52,3.22-0.66-1.93-0.75,1.93-1.45,3.71h4.14Zm1.16-3.22-1-1,1-1,1,1Z" transform="translate(-21 -106.19)"/><path class="cls-3" d="M249.08,178.89a3,3,0,0,1-.54-0.09,3.1,3.1,0,0,1-.68-0.27,4.49,4.49,0,0,1-.79-0.55,6.2,6.2,0,0,1-.86-0.91l-2.45-3-0.48.05-0.51,0h-1.65v4.6h-1.38v-12h3.92a4.25,4.25,0,0,1,2.84.89,3.44,3.44,0,0,1,1,2.78,3.7,3.7,0,0,1-.58,2.05,3.54,3.54,0,0,1-1.81,1.35L247,176a5.8,5.8,0,0,0,1.33,1.22,4,4,0,0,0,1,.52Zm-3-8.48a2.61,2.61,0,0,0-.68-2,3.08,3.08,0,0,0-2.13-.62h-2.16V173h1.76a6.2,6.2,0,0,0,1.29-.13,2.74,2.74,0,0,0,1-.43,2,2,0,0,0,.66-0.79,2.76,2.76,0,0,0,.24-1.21" transform="translate(-21 -106.19)"/><polygon class="cls-3" points="231.07 72.51 231.07 71.32 237.44 61.64 231.51 61.64 231.51 60.46 238.97 60.46 238.97 61.54 232.53 71.33 239.33 71.33 239.33 72.51 231.07 72.51"/><polygon class="cls-3" points="247.2 61.62 247.2 72.51 245.84 72.51 245.84 61.62 241.72 61.62 241.72 60.46 251.32 60.46 251.32 61.62 247.2 61.62"/><polygon class="cls-3" points="255.24 72.51 255.24 60.46 261.95 60.46 261.95 61.57 256.61 61.57 256.61 65.9 261.58 65.9 261.58 67.02 256.61 67.02 256.61 71.39 262.35 71.39 262.35 72.51 255.24 72.51"/><rect class="cls-3" x="266.84" y="70.94" width="1.57" height="1.57"/></g></svg>