<svg id="Layer_2" data-name="Layer 2" xmlns="http://www.w3.org/2000/svg" viewBox="0 0 42.76 51.85"><defs><style>.cls-1{fill:#009375;}.cls-2{fill:#1d1d1b;}</style></defs><title>logo_gfx</title><path class="cls-1" d="M35.84,7.68c-2.92-3.06-6.95-5.23-14.48-5.23S10,4.62,7.11,7.75C3.88,11.23,2.6,17.86,2.6,26S4.09,40.57,7.11,44c2.79,3.13,6.6,5.38,14.25,5.38s11.45-2,14.34-5.1C38.78,41,40.2,34.18,40.2,26S39.14,11.19,35.84,7.71M21.37,51.83c-7.55,0-12-2-15.43-5.07C1.51,42.8,0,35.27,0,26S1.52,9.08,6,5.08C9.42,2.08,13.86,0,21.39,0S33.14,2,36.58,4.89c4.76,4,6.18,11.6,6.18,21.09s-1.52,16.93-6.05,20.84c-3.42,3-7.84,5-15.31,5" transform="translate(0 0.02)"/><path class="cls-1" d="M20.2,26.94c0-.7-0.29-12.44-0.3-13a4.89,4.89,0,0,1,2.64-.09c0,0.55-.21,12.34-0.22,12.5-0.49.19-1.6,0.42-2.12,0.56" transform="translate(0 0.02)"/><path class="cls-1" d="M20.46,40c0-.17-0.17-8.45-0.17-8.59,0.47-.18,1.47-0.43,2-0.56,0,0.23-.17,8.86-0.18,9.05a3.32,3.32,0,0,1-1.63.1" transform="translate(0 0.02)"/><path class="cls-1" d="M22.06,43.13v2.14a0.73,0.73,0,0,1-1.46,0h0s-0.06-1.87,0-2.17a8.24,8.24,0,0,0,1.55.06" transform="translate(0 0.02)"/><path class="cls-1" d="M22.62,9.08V7.56a1.32,1.32,0,0,0-1.44-1.19h0a1.29,1.29,0,0,0-1.37,1.19V9.19a13.61,13.61,0,0,1,2.77-.12" transform="translate(0 0.02)"/><path class="cls-2" d="M19.43,36.24c-1.77-.68-3.23-1.92-3.23-4.06,0-2.88,2.65-4,5.31-4.58,2.25-.49,2.86-1.26,2.86-2.53a1.52,1.52,0,0,0-1-1.53c0-.56.05-2.69,0.06-3.25,2.47,1.05,4,2.46,4,4.68,0,3.27-2.7,4.27-5.38,5-1.75.45-3.39,0.65-3.39,2.42a1.69,1.69,0,0,0,.76,1.5c0,0.37.05,1.88,0.05,2.4" transform="translate(0 0.02)"/><path class="cls-2" d="M23.1,37.34a1.51,1.51,0,0,1,.78,1.42A2.44,2.44,0,0,1,21.48,41c-2.66,0-3-.8-3.26-0.62,0,1.09,1.68,1.82,3.24,1.82,2.34,0,4.31-1.23,4.31-3.6,0-1.77-1.09-2.78-2.62-3.43,0,0.63,0,1.6-.05,2.17" transform="translate(0 0.02)"/><path class="cls-2" d="M19.14,22.26C16,21.16,13.82,19.5,13.82,16c0-3.69,4-6,7.74-6,1.36,0,3.27.18,3.91,0.23a5.77,5.77,0,0,1,2.44.19c1.23,0.31,1.88,1.6,3,2.2a0.8,0.8,0,0,1,.2.8,0.71,0.71,0,0,1-.54.69c-2.71,0-5.28-1.37-9.07-1.37-2.1,0-4.37.95-4.37,3.22a3,3,0,0,0,2,2.73c0,0.54.08,3.33,0.08,3.52" transform="translate(0 0.02)"/></svg>