<svg id="Layer_1" data-name="Layer 1" xmlns="http://www.w3.org/2000/svg" xmlns:xlink="http://www.w3.org/1999/xlink" viewBox="0 0 290.48 51.8"><defs><style>.cls-1{fill:none;}.cls-2{clip-path:url(#clip-path);}.cls-3{fill:#1d1d1b;}.cls-4{fill:#009375;}</style><clipPath id="clip-path" transform="translate(-93 -118.92)"><rect class="cls-1" x="93" y="118.92" width="46.1" height="51.8"/></clipPath></defs><title>logo_gfx</title><g class="cls-2"><path class="cls-3" d="M191.86,146.82c-1.91.09-4.54-.09-4.9-1.88a8.36,8.36,0,0,1-5.11,2c-3.32,0-5.26-1.61-5.26-4.82,0-4.12,3.75-4.88,6.77-4.91l3.3,0v-1.76c0-2-1.09-2.27-3.48-2.27a19.93,19.93,0,0,0-4.6.76l-0.79-3a17.08,17.08,0,0,1,6.08-1.18c3.45,0,6.65.52,6.65,4.79v8.19c0,0.88.63,1,1.51,1.06Zm-5.2-7.19-3.06.15c-2.72.12-3.14,1-3.14,2.06a1.72,1.72,0,0,0,2,1.91c1.3,0,3.54-1,4.2-1.18v-2.94Z" transform="translate(-93 -118.92)"/><path class="cls-3" d="M206.22,133.45a9.11,9.11,0,0,0-2.12-.18,5.12,5.12,0,0,0-3.9,1.85v11.55h-4V130.11h4v2.21a5.71,5.71,0,0,1,4.44-2.55,6.34,6.34,0,0,1,2.12.28Z" transform="translate(-93 -118.92)"/><polygon class="cls-3" points="75.4 27.75 75.4 18.56 65.28 18.56 65.28 27.75 61.19 27.75 61.19 6.34 65.28 6.34 65.28 15.38 75.4 15.38 75.4 6.34 79.48 6.34 79.48 27.75 75.4 27.75"/><path class="cls-3" d="M217.19,147c-3.14,0-6.38.09-6.38-5.25v-8.61h-2.42v-3h2.42v-3.4h4v3.4h5.11v3h-5.11v8.58c0,1.73.54,1.91,2.36,1.91a25.41,25.41,0,0,0,3.18-.33l0.45,3.16a15.45,15.45,0,0,1-3.57.54" transform="translate(-93 -118.92)"/><path class="cls-3" d="M244.83,146.67V136.6c0-2.27-.45-3.49-2.6-3.49a9.22,9.22,0,0,0-4,1.42,9.17,9.17,0,0,1,.09,1.58v10.55h-4V136.6c0-2.39-.48-3.42-2.6-3.42a9.26,9.26,0,0,0-3.9,1.36v12.13h-4V130.11h4v1.73c1-.7,3-2.18,5.32-2.18,2.48,0,4,1,4.62,2.45a9.72,9.72,0,0,1,5.78-2.45c5.17,0,5.23,3.7,5.23,6.49v10.52h-4Z" transform="translate(-93 -118.92)"/><path class="cls-3" d="M267.78,146.82c-1.91.09-4.54-.09-4.9-1.88a8.35,8.35,0,0,1-5.11,2c-3.33,0-5.26-1.61-5.26-4.82,0-4.12,3.75-4.88,6.77-4.91l3.3,0v-1.76c0-2-1.09-2.27-3.48-2.27a19.92,19.92,0,0,0-4.6.76l-0.79-3a17.07,17.07,0,0,1,6.08-1.18c3.45,0,6.65.52,6.65,4.79v8.19c0,0.88.64,1,1.51,1.06Zm-5.2-7.19-3.06.15c-2.72.12-3.14,1-3.14,2.06a1.73,1.73,0,0,0,2,1.91c1.3,0,3.53-1,4.2-1.18v-2.94Z" transform="translate(-93 -118.92)"/><path class="cls-3" d="M283.07,146.67V136.6c0-2.39-.45-3.49-2.69-3.49a9.89,9.89,0,0,0-4.26,1.42v12.13h-4V130.11h4v1.73a9.57,9.57,0,0,1,5.53-2.18c5,0,5.38,3.09,5.38,6.49v10.52h-4Z" transform="translate(-93 -118.92)"/><path class="cls-3" d="M303,146.67V136.6c0-2.39-.45-3.49-2.69-3.49a9.89,9.89,0,0,0-4.26,1.42v12.13h-4V130.11h4v1.73a9.57,9.57,0,0,1,5.53-2.18c5.05,0,5.38,3.09,5.38,6.49v10.52h-4Z" transform="translate(-93 -118.92)"/><path class="cls-3" d="M318.32,146.88a19.66,19.66,0,0,1-6.53-.85V123.77h4v6.79a11.62,11.62,0,0,1,3.84-.82c4.69,0,7.44,2.46,7.44,7.92,0,7.06-4.2,9.22-8.71,9.22m0.57-14.07a13.61,13.61,0,0,0-3.14.76v9.85a14.22,14.22,0,0,0,2.66.24c3,0,4.57-2.4,4.57-5.76s-0.91-5.09-4.08-5.09" transform="translate(-93 -118.92)"/><path class="cls-3" d="M341.15,146.67v-1.79a10.16,10.16,0,0,1-5.62,2.21c-5,0-5.35-3.12-5.35-6.52V130.11h4v10c0,2.39.42,3.49,2.66,3.49a10.8,10.8,0,0,0,4.36-1.46v-12h3.93v16.56h-3.93Z" transform="translate(-93 -118.92)"/><path class="cls-3" d="M361.13,146.67V136.6c0-2.39-.45-3.49-2.69-3.49a9.91,9.91,0,0,0-4.26,1.42v12.13h-4V130.11h4v1.73a9.58,9.58,0,0,1,5.53-2.18c5,0,5.38,3.09,5.38,6.49v10.52h-4Z" transform="translate(-93 -118.92)"/><path class="cls-3" d="M379.52,146.67v-1.3a5.93,5.93,0,0,1-4,1.52c-3.17,0-7.19-1.34-7.19-8.64,0-5.64,3.78-8.64,8.5-8.64a10,10,0,0,1,2.66.3v-6.1h4v22.86h-4Zm0-13.55a11.1,11.1,0,0,0-2.63-.27c-3.29,0-4.6,2.37-4.6,5.49,0,4,1.75,5.25,3.93,5.25a8.15,8.15,0,0,0,3.3-1.06v-9.4Z" transform="translate(-93 -118.92)"/><path class="cls-4" d="M128.84,126.6c-2.92-3.06-6.95-5.23-14.48-5.23s-11.39,2.17-14.25,5.3c-3.23,3.48-4.51,10.11-4.51,18.25s1.49,14.57,4.51,18c2.79,3.13,6.6,5.38,14.25,5.38s11.45-2,14.34-5.1c3.08-3.31,4.5-10.1,4.5-18.32s-1.06-14.77-4.36-18.25m-14.47,44.12c-7.55,0-12-2-15.43-5.07C94.51,161.72,93,154.19,93,144.92S94.52,128,99,124c3.42-3,7.86-5.1,15.39-5.1s11.75,2,15.19,4.91c4.76,4,6.18,11.6,6.18,21.09s-1.52,16.93-6.05,20.84c-3.42,3-7.84,5-15.31,5" transform="translate(-93 -118.92)"/><path class="cls-4" d="M113.2,145.86c0-.7-0.29-12.44-0.3-13a4.89,4.89,0,0,1,2.64-.09c0,0.55-.21,12.34-0.22,12.5-0.49.19-1.6,0.42-2.12,0.56" transform="translate(-93 -118.92)"/><path class="cls-4" d="M113.46,158.91c0-.17-0.17-8.45-0.17-8.59,0.47-.18,1.47-0.43,2-0.56,0,0.23-.17,8.86-0.18,9.05a3.32,3.32,0,0,1-1.63.1" transform="translate(-93 -118.92)"/><path class="cls-4" d="M115.06,162.05c0,0.21,0,2.11,0,2.14a0.73,0.73,0,1,1-1.46,0s-0.06-1.87,0-2.17a8.24,8.24,0,0,0,1.55.06" transform="translate(-93 -118.92)"/><path class="cls-4" d="M115.62,128s0-1.35,0-1.52a1.32,1.32,0,0,0-1.46-1.19,1.29,1.29,0,0,0-1.37,1.19c0,0.14,0,1.26,0,1.63a13.61,13.61,0,0,1,2.77-.12" transform="translate(-93 -118.92)"/><path class="cls-3" d="M112.43,155.16c-1.77-.68-3.23-1.92-3.23-4.06,0-2.88,2.65-4,5.31-4.58,2.25-.49,2.86-1.26,2.86-2.53a1.52,1.52,0,0,0-1-1.53c0-.56.05-2.69,0.06-3.25,2.47,1.05,4,2.46,4,4.68,0,3.27-2.7,4.27-5.38,5-1.75.45-3.39,0.65-3.39,2.42a1.69,1.69,0,0,0,.76,1.5c0,0.37.05,1.88,0.05,2.4" transform="translate(-93 -118.92)"/><path class="cls-3" d="M116.1,156.26a1.51,1.51,0,0,1,.78,1.42,2.44,2.44,0,0,1-2.4,2.24c-2.66,0-3-.8-3.26-0.62,0,1.09,1.68,1.82,3.24,1.82,2.34,0,4.31-1.23,4.31-3.6,0-1.77-1.09-2.78-2.62-3.43,0,0.63,0,1.6-.05,2.17" transform="translate(-93 -118.92)"/><path class="cls-3" d="M112.14,141.18c-3.12-1.1-5.32-2.76-5.32-6.22,0-3.69,4-6,7.74-6,1.36,0,3.27.18,3.91,0.23a5.77,5.77,0,0,1,2.44.19c1.23,0.31,1.88,1.6,3,2.2a0.8,0.8,0,0,1,.2.8,0.71,0.71,0,0,1-.54.69c-2.71,0-5.28-1.37-9.07-1.37-2.1,0-4.37.95-4.37,3.22a3,3,0,0,0,2,2.73c0,0.54.08,3.33,0.08,3.52" transform="translate(-93 -118.92)"/><path class="cls-3" d="M159.16,165.16a2.12,2.12,0,0,1-.22,1,2,2,0,0,1-.61.69,2.66,2.66,0,0,1-.9.4,4.44,4.44,0,0,1-1.1.13,5.25,5.25,0,0,1-.84-0.06,6.32,6.32,0,0,1-.68-0.14,3.12,3.12,0,0,1-.48-0.16l-0.25-.12,0.31-.75,0.29,0.13,0.42,0.16a3.61,3.61,0,0,0,.55.13,4,4,0,0,0,.66.05,3.49,3.49,0,0,0,.72-0.07,2,2,0,0,0,.61-0.23,1.2,1.2,0,0,0,.43-0.43,1.25,1.25,0,0,0,.16-0.65,1.17,1.17,0,0,0-.29-0.82,2.86,2.86,0,0,0-.73-0.56,9.43,9.43,0,0,0-.94-0.45,5.28,5.28,0,0,1-.94-0.51,2.71,2.71,0,0,1-.73-0.72,1.9,1.9,0,0,1-.29-1.09,1.87,1.87,0,0,1,.19-0.87,1.71,1.71,0,0,1,.51-0.6,2.23,2.23,0,0,1,.76-0.35,3.56,3.56,0,0,1,.91-0.11,6.49,6.49,0,0,1,.8,0l0.59,0.1,0.4,0.11,0.21,0.09-0.29.72a3.66,3.66,0,0,0-.6-0.19,4.55,4.55,0,0,0-1.08-.1,3.32,3.32,0,0,0-.6.05,1.41,1.41,0,0,0-.5.18,0.94,0.94,0,0,0-.33.35,1.13,1.13,0,0,0-.12.55,1,1,0,0,0,.3.76,3,3,0,0,0,.74.54q0.44,0.24,1,.47a5.7,5.7,0,0,1,1,.54,2.85,2.85,0,0,1,.74.74,1.87,1.87,0,0,1,.3,1.08" transform="translate(-93 -118.92)"/><polygon class="cls-3" points="71.76 41.08 71.76 48.35 70.85 48.35 70.85 41.08 68.1 41.08 68.1 40.3 74.52 40.3 74.52 41.08 71.76 41.08"/><path class="cls-3" d="M174.41,167.27l-1-3h-3.3l-1.17,3H168l3.17-8h1.43l2.79,8h-1ZM172.25,161l-0.44-1.29-0.5,1.29-1,2.48h2.77Z" transform="translate(-93 -118.92)"/><path class="cls-3" d="M184.35,167.39a2,2,0,0,1-.36-0.06,2.07,2.07,0,0,1-.46-0.18,3,3,0,0,1-.53-0.36,4.07,4.07,0,0,1-.57-0.61l-1.64-2-0.32,0H179v3.07H178.1v-8h2.62a2.84,2.84,0,0,1,1.9.59,2.3,2.3,0,0,1,.7,1.86,2.47,2.47,0,0,1-.39,1.37,2.38,2.38,0,0,1-1.21.91l1.25,1.51a3.9,3.9,0,0,0,.89.81,2.72,2.72,0,0,0,.68.35Zm-2-5.67a1.75,1.75,0,0,0-.46-1.35,2.06,2.06,0,0,0-1.42-.42H179v3.47h1.17a4.14,4.14,0,0,0,.87-0.09,1.86,1.86,0,0,0,.68-0.28,1.36,1.36,0,0,0,.44-0.53,1.86,1.86,0,0,0,.16-0.81" transform="translate(-93 -118.92)"/><path class="cls-3" d="M187.36,159.22h0.91v8h-0.91v-8Zm4.6,8-3.4-4.17v-0.2l3.22-3.68h1.15l-3.35,3.72,3.6,4.33H192Z" transform="translate(-93 -118.92)"/><polygon class="cls-3" points="107.35 41.04 107.35 44.16 110.9 44.16 110.9 44.91 107.35 44.91 107.35 48.35 106.44 48.35 106.44 40.3 111.15 40.3 111.15 41.04 107.35 41.04"/><path class="cls-3" d="M213.41,164.23a3.67,3.67,0,0,1-.3,1.58,2.6,2.6,0,0,1-1.78,1.47,4.67,4.67,0,0,1-1.1.14,5.52,5.52,0,0,1-1.16-.12,2.9,2.9,0,0,1-1-.44,2.32,2.32,0,0,1-.75-0.88,3.17,3.17,0,0,1-.28-1.43v-5.32h0.93v5.24a2.51,2.51,0,0,0,.2,1.08,1.7,1.7,0,0,0,.52.66,1.93,1.93,0,0,0,.73.33,3.86,3.86,0,0,0,.84.09,3.49,3.49,0,0,0,.88-0.11,1.75,1.75,0,0,0,1.24-1.13,3.36,3.36,0,0,0,.18-1.2v-5h0.88v5Zm-4.47-5.35-0.67-.68,0.67-.67,0.67,0.67Zm2.46,0-0.67-.68,0.67-.67,0.68,0.67Z" transform="translate(-93 -118.92)"/><path class="cls-3" d="M223.53,167.39a2,2,0,0,1-.37-0.06,2.07,2.07,0,0,1-.46-0.18,3.08,3.08,0,0,1-.53-0.36,4.13,4.13,0,0,1-.57-0.61l-1.64-2-0.32,0H218.2v3.07h-0.92v-8h2.62a2.85,2.85,0,0,1,1.9.59,2.3,2.3,0,0,1,.7,1.86,2.47,2.47,0,0,1-.39,1.37,2.38,2.38,0,0,1-1.21.91l1.25,1.51a3.92,3.92,0,0,0,.89.81,2.72,2.72,0,0,0,.68.35Zm-2-5.67a1.75,1.75,0,0,0-.46-1.35,2.06,2.06,0,0,0-1.42-.42H218.2v3.47h1.17a4.13,4.13,0,0,0,.87-0.09,1.86,1.86,0,0,0,.68-0.28,1.36,1.36,0,0,0,.44-0.53,1.85,1.85,0,0,0,.16-0.81" transform="translate(-93 -118.92)"/><path class="cls-3" d="M235.37,167.27l-1-3H231l-1.17,3h-0.91l3.16-8h1.44l2.79,8h-1Zm-3.84-8.39-0.67-.68,0.67-.67,0.67,0.67Zm1.69,2.15-0.44-1.29-0.5,1.29-1,2.48h2.77Zm0.77-2.15-0.67-.68,0.67-.67,0.68,0.67Z" transform="translate(-93 -118.92)"/><path class="cls-3" d="M245.3,167.39a2,2,0,0,1-.36-0.06,2,2,0,0,1-.46-0.18,3,3,0,0,1-.53-0.36,4.18,4.18,0,0,1-.58-0.61l-1.64-2-0.32,0H240v3.07h-0.92v-8h2.62a2.84,2.84,0,0,1,1.9.59,2.3,2.3,0,0,1,.7,1.86,2.47,2.47,0,0,1-.39,1.37,2.38,2.38,0,0,1-1.21.91l1.25,1.51a3.88,3.88,0,0,0,.89.81,2.7,2.7,0,0,0,.68.35Zm-2-5.67a1.75,1.75,0,0,0-.46-1.35,2.06,2.06,0,0,0-1.42-.42H240v3.47h1.17a4.12,4.12,0,0,0,.86-0.09,1.84,1.84,0,0,0,.68-0.28,1.34,1.34,0,0,0,.44-0.53,1.84,1.84,0,0,0,.16-0.81" transform="translate(-93 -118.92)"/><polygon class="cls-3" points="154.3 48.35 154.3 47.55 158.55 41.09 154.59 41.09 154.59 40.3 159.58 40.3 159.58 41.02 155.28 47.57 159.82 47.57 159.82 48.35 154.3 48.35"/><polygon class="cls-3" points="165.08 41.08 165.08 48.35 164.17 48.35 164.17 41.08 161.41 41.08 161.41 40.3 167.83 40.3 167.83 41.08 165.08 41.08"/><polygon class="cls-3" points="170.45 48.35 170.45 40.3 174.93 40.3 174.93 41.04 171.36 41.04 171.36 43.94 174.68 43.94 174.68 44.69 171.36 44.69 171.36 47.6 175.2 47.6 175.2 48.35 170.45 48.35"/><rect class="cls-3" x="178.2" y="47.3" width="1.05" height="1.05"/></g></svg>