<svg id="Layer_1" data-name="Layer 1" xmlns="http://www.w3.org/2000/svg" viewBox="0 0 184.15 175.58"><defs><style>.cls-1{fill:#fff;}</style></defs><title>HB_App_MediaButton_weiss2</title><path class="cls-1" d="M241.15,299.52V123.94H57V299.52H241.15Zm-148-143.69h-27v-27h27v27h0Zm0,34.26h-27v-27h27v27h0Zm0,34.26h-27v-27h27v27h0Zm0,34.26h-27v-27h27v27h0Zm0,34.26h-27v-27h27v27h0Zm104.53-87.5H101.41V133.81h96.23v71.55h0Zm0,83.89H101.41V217.7h96.23v71.55h0Zm35.69-133.42h-27v-27h27v27h0Zm0,34.26h-27v-27h27v27h0Zm0,34.26h-27v-27h27v27h0Zm0,34.26h-27v-27h27v27h0Zm0,34.26h-27v-27h27v27h0Z" transform="translate(-57 -123.94)"/></svg>