<svg id="Layer_1" data-name="Layer 1" xmlns="http://www.w3.org/2000/svg" viewBox="0 0 105.6 105.6"><defs><style>.cls-1{fill:#069c7d;}.cls-2{font-size:12.91px;font-family:Source Sans Pro;}.cls-2,.cls-3{fill:#fff;}.cls-4{fill:none;stroke:#fff;stroke-width:2px;}</style></defs><title>menu_veranstaltungen</title><polyline class="cls-1" points="105.6 105.6 105.6 0 0 0 0 105.6"/><text class="cls-2" transform="translate(9.4 90.35)">V<tspan x="6.47" y="0">e</tspan><tspan x="12.87" y="0">r</tspan><tspan x="17.04" y="0">ans</tspan><tspan x="36.11" y="0">t</tspan><tspan x="40.24" y="0">al</tspan><tspan x="50.14" y="0">t</tspan><tspan x="54.43" y="0">un</tspan><tspan x="68.51" y="0">g</tspan><tspan x="74.85" y="0">en</tspan></text><rect class="cls-3" x="32.47" y="28.1" width="43.78" height="39.5"/><rect class="cls-1" x="35.41" y="41.28" width="7.01" height="7.01"/><rect class="cls-1" x="35.41" y="48.77" width="7.01" height="7.01"/><rect class="cls-1" x="35.41" y="56.25" width="7.01" height="7.01"/><rect class="cls-1" x="43.23" y="41.28" width="7.01" height="7.01"/><rect class="cls-1" x="43.23" y="48.77" width="7.01" height="7.01"/><rect class="cls-1" x="43.23" y="56.25" width="7.01" height="7.01"/><rect class="cls-1" x="51.05" y="41.28" width="7.01" height="7.01"/><rect class="cls-1" x="51.05" y="48.77" width="7.01" height="7.01"/><rect class="cls-1" x="51.05" y="56.25" width="7.01" height="7.01"/><rect class="cls-1" x="58.87" y="41.28" width="7.01" height="7.01"/><rect class="cls-1" x="58.87" y="48.77" width="7.01" height="7.01"/><rect class="cls-1" x="58.87" y="56.25" width="7.01" height="7.01"/><rect class="cls-1" x="66.69" y="41.28" width="7.01" height="7.01"/><rect class="cls-1" x="66.69" y="48.77" width="7.01" height="7.01"/><rect class="cls-1" x="66.69" y="56.25" width="7.01" height="7.01"/><path class="cls-1" d="M119.75,149.63A2.3,2.3,0,0,0,117.4,152v9.21a2.3,2.3,0,0,0,2.35,2.35h1.51a2.3,2.3,0,0,0,2.35-2.35V152a2.3,2.3,0,0,0-2.35-2.35h-1.51Z" transform="translate(-78.49 -128.29)"/><path class="cls-4" d="M119.75,149.63A2.3,2.3,0,0,0,117.4,152v9.21a2.3,2.3,0,0,0,2.35,2.35h1.51a2.3,2.3,0,0,0,2.35-2.35V152a2.3,2.3,0,0,0-2.35-2.35h-1.51Z" transform="translate(-78.49 -128.29)"/><path class="cls-1" d="M145,149.63A2.3,2.3,0,0,0,142.7,152v9.21a2.3,2.3,0,0,0,2.35,2.35h1.51a2.3,2.3,0,0,0,2.35-2.35V152a2.3,2.3,0,0,0-2.35-2.35H145Z" transform="translate(-78.49 -128.29)"/><path class="cls-4" d="M145,149.63A2.3,2.3,0,0,0,142.7,152v9.21a2.3,2.3,0,0,0,2.35,2.35h1.51a2.3,2.3,0,0,0,2.35-2.35V152a2.3,2.3,0,0,0-2.35-2.35H145Z" transform="translate(-78.49 -128.29)"/></svg>