<svg id="Layer_1" data-name="Layer 1" xmlns="http://www.w3.org/2000/svg" viewBox="0 0 105.6 105.6"><defs><style>.cls-1{fill:#069c7d;}.cls-2,.cls-3{fill:#fff;}.cls-3{font-size:12.91px;font-family:Source Sans Pro;}</style></defs><title>menu_location</title><polyline class="cls-1" points="0 0 0 105.6 105.6 105.6 105.6 0"/><path class="cls-2" d="M250.87,65.92a10.45,10.45,0,1,1-10.45-10.45,10.45,10.45,0,0,1,10.45,10.45m6.25-.46a16.7,16.7,0,1,0-22,15.7c1.66,0.55,3.43,10.94,5.28,10.94,1.66,0,3.26-10.34,4.78-10.79a16.58,16.58,0,0,0,11.92-15.86" transform="translate(-186.38 -20.54)"/><text class="cls-3" transform="translate(29.16 92.59)">L<tspan x="6.12" y="0">o</tspan><tspan x="13.11" y="0">c</tspan><tspan x="18.87" y="0">ation</tspan></text></svg>