<svg id="Layer_1" data-name="Layer 1" xmlns="http://www.w3.org/2000/svg" viewBox="0 0 105.6 105.6"><defs><style>.cls-1{fill:#069c7d;}.cls-2{font-size:12.91px;font-family:Source Sans Pro;}.cls-2,.cls-3{fill:#fff;}</style></defs><title>menu_akteure</title><polyline class="cls-1" points="0 0 0 105.6 105.6 105.6 105.6 0"/><text class="cls-2" transform="translate(31.31 92.24)">A<tspan x="7.02" y="0">k</tspan><tspan x="13.23" y="0">t</tspan><tspan x="17.48" y="0">eu</tspan><tspan x="30.9" y="0">r</tspan><tspan x="35.26" y="0">e</tspan></text><path class="cls-3" d="M345.88,66a8.13,8.13,0,1,0-8.12-8.12A8.12,8.12,0,0,0,345.88,66" transform="translate(-293.98 -20.54)"/><path class="cls-3" d="M332.41,79.24c0,6,7.92,7,14,7s13.79-1,13.79-7c0-4.15-3.7-9.59-8-12.55A10.2,10.2,0,0,1,340,67c-4.13,3-7.64,8.21-7.64,12.2" transform="translate(-293.98 -20.54)"/><path class="cls-3" d="M366,65.87a6.15,6.15,0,1,0-6.15-6.15A6.15,6.15,0,0,0,366,65.87" transform="translate(-293.98 -20.54)"/><path class="cls-3" d="M376.95,76.25c0-3.14-2.8-7.26-6-9.51a7.72,7.72,0,0,1-9.19.27,16.46,16.46,0,0,0-3,2.84c2.45,2.84,4.18,6.26,4.18,9.1a5.57,5.57,0,0,1-.51,2.37,29.21,29.21,0,0,0,4.08.26c4.58,0,10.44-.78,10.44-5.32" transform="translate(-293.98 -20.54)"/><path class="cls-3" d="M326.13,65.87a6.15,6.15,0,1,1,6.15-6.15,6.15,6.15,0,0,1-6.15,6.15" transform="translate(-293.98 -20.54)"/><path class="cls-3" d="M315.18,76.25c0-3.14,2.8-7.26,6-9.51a7.72,7.72,0,0,0,9.19.27,16.46,16.46,0,0,1,3,2.84c-2.45,2.84-4.18,6.26-4.18,9.1a5.57,5.57,0,0,0,.51,2.37,29.21,29.21,0,0,1-4.08.26c-4.58,0-10.44-.78-10.44-5.32" transform="translate(-293.98 -20.54)"/></svg>