<svg id="Layer_1" data-name="Layer 1" xmlns="http://www.w3.org/2000/svg" viewBox="0 0 105.6 105.6"><defs><style>.cls-1{fill:#069c7d;}.cls-2{font-size:12.91px;font-family:Source Sans Pro;}.cls-2,.cls-3{fill:#fff;}.cls-4,.cls-5{fill:none;stroke:#069c7d;}.cls-4{stroke-linecap:round;stroke-linejoin:round;stroke-width:3px;}.cls-5{stroke-width:2px;}</style></defs><title>menu_unterlagen</title><polyline class="cls-1" points="105.6 105.6 105.6 0 0 0 0 105.6"/><text class="cls-2" transform="translate(22.59 90.35)">Un<tspan x="15.38" y="0">t</tspan><tspan x="19.62" y="0">erla</tspan><tspan x="40.4" y="0">g</tspan><tspan x="46.72" y="0">en</tspan></text><polygon class="cls-3" points="71.56 60.1 71.56 26.65 35.44 26.65 35.44 69.04 60.59 69.04 71.56 60.1"/><line class="cls-4" x1="42.94" y1="42.14" x2="64.49" y2="42.14"/><line class="cls-4" x1="42.94" y1="48.27" x2="64.49" y2="48.27"/><line class="cls-4" x1="42.94" y1="54.41" x2="64.49" y2="54.41"/><line class="cls-4" x1="42.94" y1="60.54" x2="64.49" y2="60.54"/><polygon class="cls-3" points="61.47 68.24 62.55 58.08 70.93 60.3 61.47 68.24"/><polygon class="cls-5" points="61.47 68.24 62.55 58.08 70.93 60.3 61.47 68.24"/></svg>