<?xml version="1.0" standalone="no"?>
<!DOCTYPE svg PUBLIC "-//W3C//DTD SVG 20010904//EN"
 "http://www.w3.org/TR/2001/REC-SVG-20010904/DTD/svg10.dtd">
<svg version="1.0" xmlns="http://www.w3.org/2000/svg"
 width="260.000000pt" height="260.000000pt" viewBox="0 0 260.000000 260.000000"
 preserveAspectRatio="xMidYMid meet">
<metadata>
Created by potrace 1.11, written by Peter Selinger 2001-2013
</metadata>
<g transform="translate(0.000000,260.000000) scale(0.100000,-0.100000)"
fill="#000000" stroke="none">
<path d="M0 1300 l0 -1300 1300 0 1300 0 0 1300 0 1300 -1300 0 -1300 0 0
-1300z m1465 1010 c184 -27 330 -91 441 -194 112 -104 172 -226 210 -431 27
-143 27 -636 1 -770 -70 -353 -227 -528 -546 -608 -114 -28 -413 -30 -530 -4
-153 36 -272 99 -371 197 -103 103 -161 234 -197 446 -24 148 -25 551 0 701
54 336 204 532 476 623 133 44 361 62 516 40z"/>
<path d="M1095 2206 c-317 -63 -474 -252 -525 -636 -15 -109 -15 -421 0 -530
15 -117 54 -260 92 -339 66 -140 222 -257 395 -298 118 -27 398 -24 508 5 182
50 306 147 374 293 65 142 91 280 98 535 9 311 -25 536 -103 684 -66 126 -204
227 -371 271 -101 27 -363 35 -468 15z m235 -156 c12 -12 20 -33 20 -55 l0
-35 -60 0 -60 0 0 35 c0 39 28 75 60 75 11 0 29 -9 40 -20z m207 -136 c43 -6
143 -91 143 -120 0 -35 -28 -37 -166 -8 -152 32 -264 36 -311 11 -47 -25 -73
-64 -73 -110 0 -34 6 -46 40 -77 39 -36 40 -39 40 -103 l0 -66 -49 20 c-106
45 -161 120 -161 223 0 118 87 207 233 235 41 8 239 5 304 -5z m-192 -186 c-1
-27 -2 -138 -3 -248 l-2 -199 -41 -11 c-23 -6 -43 -9 -45 -7 -8 7 -17 484 -11
501 5 13 17 16 54 14 l48 -3 0 -47z m91 -238 c83 -47 116 -118 94 -200 -19
-72 -63 -104 -195 -145 -118 -37 -145 -56 -145 -100 0 -12 7 -30 15 -41 8 -10
15 -41 15 -68 l0 -48 -42 25 c-82 46 -111 157 -61 226 27 35 104 76 183 96 82
21 110 45 110 97 0 27 -6 41 -20 50 -17 11 -20 24 -20 75 0 35 3 63 8 63 4 0
30 -13 58 -30z m-106 -560 l0 -180 -26 -6 c-14 -4 -29 -3 -34 2 -4 5 -11 84
-15 175 l-7 167 38 10 c22 5 40 10 42 11 1 1 2 -80 2 -179z m101 -39 c35 -35
39 -44 39 -89 0 -93 -75 -149 -187 -140 -53 5 -102 30 -111 58 -4 10 1 11 19
6 13 -5 51 -10 84 -13 54 -4 63 -2 88 21 31 29 37 85 12 106 -20 17 -17 90 3
90 8 0 32 -17 53 -39z m-111 -325 c0 -41 -4 -55 -16 -60 -28 -11 -44 13 -44
65 0 48 1 49 30 49 30 0 30 -1 30 -54z"/>
</g>
</svg>
