<?xml version="1.0" encoding="utf-8"?>
<!-- Generator: Adobe Illustrator 19.2.0, SVG Export Plug-In . SVG Version: 6.00 Build 0)  -->
<svg version="1.1" id="Layer_1" xmlns="http://www.w3.org/2000/svg" xmlns:xlink="http://www.w3.org/1999/xlink" x="0px" y="0px"
	 viewBox="0 0 105.6 105.6" style="enable-background:new 0 0 105.6 105.6;" xml:space="preserve">
<style type="text/css">
	.st0{fill:#069C7D;}
	.st1{enable-background:new    ;}
	.st2{fill:#FFFFFF;}
</style>
<title>menu_akteure</title>
<polyline class="st0" points="0,0 0,105.6 105.6,105.6 105.6,0 "/>
<g class="st1">
	<path class="st2" d="M36.3,89.7h-3.1l-0.8,2.6h-1.1l2.9-8.5h1.2l2.9,8.5h-1.1L36.3,89.7z M36.1,88.8l-0.4-1.3
		c-0.3-0.9-0.6-1.9-0.9-2.9h-0.1c-0.3,1-0.5,1.9-0.8,2.9l-0.4,1.3H36.1z"/>
</g>
<g class="st1">
	<path class="st2" d="M39.4,83h1v6.2h0l2.7-3.3h1.2l-2.1,2.5l2.4,3.8h-1.2l-1.8-3l-1.2,1.4v1.7h-1V83z"/>
</g>
<g class="st1">
	<path class="st2" d="M45.8,86.8h-0.9V86l1-0.1l0.1-1.8h0.9V86h1.7v0.9h-1.7v3.5c0,0.8,0.2,1.2,1,1.2c0.2,0,0.5-0.1,0.7-0.2l0.2,0.8
		c-0.3,0.1-0.8,0.2-1.2,0.2c-1.3,0-1.8-0.9-1.8-2.1V86.8z"/>
</g>
<g class="st1">
	<path class="st2" d="M52.2,85.8c1.6,0,2.5,1.1,2.5,2.9c0,0.2,0,0.4,0,0.6h-4.2c0.1,1.4,0.9,2.2,2.1,2.2c0.6,0,1.1-0.2,1.6-0.5
		l0.4,0.7c-0.5,0.3-1.2,0.6-2.1,0.6c-1.7,0-3-1.2-3-3.3S50.8,85.8,52.2,85.8z M53.8,88.6c0-1.3-0.6-2-1.5-2c-0.9,0-1.7,0.7-1.8,2
		H53.8z"/>
	<path class="st2" d="M56.2,86h1.1v3.8c0,1.2,0.3,1.7,1.2,1.7c0.6,0,1.1-0.3,1.7-1.1V86h1.1v6.3h-0.9l-0.1-1h0
		c-0.6,0.7-1.2,1.1-2.1,1.1c-1.3,0-1.9-0.9-1.9-2.5V86z"/>
</g>
<g class="st1">
	<path class="st2" d="M63.3,86h0.9l0.1,1.1h0c0.4-0.8,1.1-1.3,1.8-1.3c0.3,0,0.5,0,0.7,0.1l-0.2,0.9c-0.2-0.1-0.3-0.1-0.6-0.1
		c-0.5,0-1.2,0.4-1.6,1.4v4h-1.1V86z"/>
</g>
<g class="st1">
	<path class="st2" d="M70,85.8c1.6,0,2.5,1.1,2.5,2.9c0,0.2,0,0.4,0,0.6h-4.2c0.1,1.4,0.9,2.2,2.1,2.2c0.6,0,1.1-0.2,1.6-0.5
		l0.4,0.7c-0.5,0.3-1.2,0.6-2.1,0.6c-1.7,0-3-1.2-3-3.3S68.5,85.8,70,85.8z M71.6,88.6c0-1.3-0.6-2-1.5-2c-0.9,0-1.7,0.7-1.8,2H71.6
		z"/>
</g>
<path class="st2" d="M51.9,45.5c4.5,0,8.1-3.6,8.1-8.1s-3.6-8.1-8.1-8.1c-4.5,0-8.1,3.6-8.1,8.1c0,0,0,0,0,0
	C43.8,41.8,47.4,45.5,51.9,45.5"/>
<path class="st2" d="M38.4,58.7c0,6,7.9,7,14,7s13.8-1,13.8-7c0-4.2-3.7-9.6-8-12.6c-3.5,2.8-8.5,2.9-12.2,0.3
	C41.9,49.5,38.4,54.7,38.4,58.7"/>
<path class="st2" d="M72,45.3c3.4,0,6.1-2.8,6.1-6.1c0-3.4-2.8-6.2-6.1-6.2c-3.4,0-6.1,2.8-6.1,6.1v0C65.9,42.6,68.6,45.3,72,45.3"
	/>
<path class="st2" d="M83,55.7c0-3.1-2.8-7.3-6-9.5c-2.7,2.1-6.4,2.2-9.2,0.3c-1.1,0.8-2.1,1.8-3,2.8c2.5,2.8,4.2,6.3,4.2,9.1
	c0,0.8-0.2,1.6-0.5,2.4c1.4,0.2,2.7,0.3,4.1,0.3C77.1,61,83,60.3,83,55.7"/>
<path class="st2" d="M32.1,45.3c-3.4,0-6.1-2.8-6.1-6.1c0-3.4,2.8-6.2,6.1-6.2c3.4,0,6.1,2.8,6.1,6.1v0
	C38.3,42.6,35.5,45.3,32.1,45.3"/>
<path class="st2" d="M21.2,55.7c0-3.1,2.8-7.3,6-9.5c2.7,2.1,6.4,2.2,9.2,0.3c1.1,0.8,2.1,1.8,3,2.8c-2.5,2.8-4.2,6.3-4.2,9.1
	c0,0.8,0.2,1.6,0.5,2.4C34.4,61,33,61,31.6,61C27.1,61,21.2,60.3,21.2,55.7"/>
</svg>
