<?xml version="1.0" encoding="utf-8"?>
<!-- Generator: Adobe Illustrator 19.2.0, SVG Export Plug-In . SVG Version: 6.00 Build 0)  -->
<svg version="1.1" id="Layer_1" xmlns="http://www.w3.org/2000/svg" xmlns:xlink="http://www.w3.org/1999/xlink" x="0px" y="0px"
	 viewBox="0 0 105.6 105.6" style="enable-background:new 0 0 105.6 105.6;" xml:space="preserve">
<style type="text/css">
	.st0{fill:#069C7D;}
	.st1{fill:#FFFFFF;}
	.st2{enable-background:new    ;}
</style>
<title>menu_location</title>
<polyline class="st0" points="0,0 0,105.6 105.6,105.6 105.6,0 "/>
<path class="st1" d="M64.5,45.4c0,5.8-4.7,10.4-10.4,10.4s-10.4-4.7-10.4-10.4S48.3,34.9,54,34.9l0,0C59.8,34.9,64.5,39.6,64.5,45.4
	 M70.7,44.9c0.1-9.2-7.3-16.8-16.6-16.8C45,28,37.4,35.4,37.3,44.6c-0.1,7.2,4.5,13.7,11.4,16c1.7,0.6,3.4,10.9,5.3,10.9
	c1.7,0,3.3-10.3,4.8-10.8C65.8,58.7,70.7,52.3,70.7,44.9"/>
<g class="st2">
	<path class="st1" d="M30.3,84.1h1.1v7.6h3.7v0.9h-4.8V84.1z"/>
</g>
<g class="st2">
	<path class="st1" d="M38.8,86.2c1.5,0,2.9,1.2,2.9,3.3c0,2.1-1.4,3.3-2.9,3.3c-1.5,0-2.9-1.2-2.9-3.3
		C35.9,87.4,37.2,86.2,38.8,86.2z M38.8,91.9c1.1,0,1.8-1,1.8-2.4c0-1.4-0.7-2.4-1.8-2.4c-1.1,0-1.8,1-1.8,2.4
		C37,90.9,37.7,91.9,38.8,91.9z"/>
</g>
<g class="st2">
	<path class="st1" d="M45.9,86.2c0.8,0,1.4,0.3,1.8,0.7l-0.5,0.7c-0.4-0.3-0.8-0.6-1.3-0.6c-1.1,0-2,1-2,2.4c0,1.4,0.8,2.4,1.9,2.4
		c0.6,0,1.1-0.3,1.5-0.6l0.5,0.7c-0.6,0.5-1.3,0.8-2,0.8c-1.7,0-2.9-1.2-2.9-3.3C42.9,87.4,44.3,86.2,45.9,86.2z"/>
</g>
<g class="st2">
	<path class="st1" d="M52.6,88.6c0-0.8-0.3-1.6-1.3-1.6c-0.7,0-1.4,0.3-1.9,0.7L49,87c0.6-0.4,1.5-0.8,2.5-0.8c1.5,0,2.2,1,2.2,2.6
		v3.8h-0.9l-0.1-0.7h0c-0.6,0.5-1.3,0.9-2.1,0.9c-1.1,0-1.8-0.7-1.8-1.8C48.8,89.6,50,88.9,52.6,88.6z M50.9,91.9
		c0.6,0,1.1-0.3,1.7-0.8v-1.7c-2.1,0.3-2.8,0.8-2.8,1.6C49.8,91.6,50.3,91.9,50.9,91.9z"/>
	<path class="st1" d="M55.9,87.2H55v-0.8l1-0.1l0.1-1.8H57v1.8h1.7v0.9H57v3.5c0,0.8,0.2,1.2,1,1.2c0.2,0,0.5-0.1,0.7-0.2l0.2,0.8
		c-0.3,0.1-0.8,0.2-1.2,0.2c-1.3,0-1.8-0.9-1.8-2.1V87.2z"/>
	<path class="st1" d="M59.9,84.3c0-0.4,0.3-0.7,0.7-0.7s0.7,0.3,0.7,0.7c0,0.4-0.3,0.7-0.7,0.7S59.9,84.7,59.9,84.3z M60.1,86.3h1.1
		v6.3h-1.1V86.3z"/>
	<path class="st1" d="M65.7,86.2c1.5,0,2.9,1.2,2.9,3.3c0,2.1-1.4,3.3-2.9,3.3s-2.9-1.2-2.9-3.3C62.8,87.4,64.1,86.2,65.7,86.2z
		 M65.7,91.9c1.1,0,1.8-1,1.8-2.4c0-1.4-0.7-2.4-1.8-2.4c-1.1,0-1.8,1-1.8,2.4C63.9,90.9,64.6,91.9,65.7,91.9z"/>
	<path class="st1" d="M70.2,86.3h0.9l0.1,0.9h0c0.6-0.6,1.2-1.1,2.1-1.1c1.3,0,1.9,0.9,1.9,2.5v4h-1.1v-3.8c0-1.2-0.4-1.7-1.2-1.7
		c-0.6,0-1.1,0.3-1.7,1v4.5h-1.1V86.3z"/>
</g>
</svg>
