<?xml version="1.0" encoding="utf-8"?>
<!-- Generator: Adobe Illustrator 19.2.0, SVG Export Plug-In . SVG Version: 6.00 Build 0)  -->
<svg version="1.1" id="Layer_1" xmlns="http://www.w3.org/2000/svg" xmlns:xlink="http://www.w3.org/1999/xlink" x="0px" y="0px"
	 viewBox="0 0 105.6 105.6" style="enable-background:new 0 0 105.6 105.6;" xml:space="preserve">
<style type="text/css">
	.st0{fill:#069C7D;}
	.st1{enable-background:new    ;}
	.st2{fill:#FFFFFF;}
</style>
<title>menu_meia</title>
<polyline class="st0" points="105.6,105.6 105.6,0 0,0 0,105.6 "/>
<g class="st1">
	<path class="st2" d="M37.3,81.9h1.3l1.6,4.5l0.6,1.7h0.1l0.6-1.7l1.6-4.5h1.3v8.5h-1v-4.7c0-0.7,0.1-1.8,0.1-2.5h-0.1l-0.7,1.9
		l-1.6,4.4h-0.6l-1.6-4.4l-0.7-1.9h-0.1c0.1,0.7,0.1,1.8,0.1,2.5v4.7h-1V81.9z"/>
	<path class="st2" d="M48.9,83.9c1.6,0,2.5,1.1,2.5,2.9c0,0.2,0,0.4,0,0.6h-4.2c0.1,1.4,0.9,2.2,2.1,2.2c0.6,0,1.1-0.2,1.6-0.5
		l0.4,0.7c-0.5,0.3-1.2,0.6-2.1,0.6c-1.7,0-3-1.2-3-3.3S47.5,83.9,48.9,83.9z M50.5,86.7c0-1.3-0.6-2-1.5-2c-0.9,0-1.7,0.7-1.8,2
		H50.5z"/>
	<path class="st2" d="M55.2,83.9c0.7,0,1.2,0.3,1.8,0.7l-0.1-1.1v-2.4H58v9.2h-0.9L57,89.6h0c-0.5,0.5-1.2,0.9-1.9,0.9
		c-1.6,0-2.6-1.2-2.6-3.3C52.5,85.2,53.8,83.9,55.2,83.9z M55.3,89.6c0.6,0,1.1-0.3,1.6-0.9v-3.3c-0.5-0.5-1-0.7-1.5-0.7
		c-1,0-1.8,1-1.8,2.4C53.6,88.7,54.2,89.6,55.3,89.6z"/>
	<path class="st2" d="M59.9,82.1c0-0.4,0.3-0.7,0.7-0.7s0.7,0.3,0.7,0.7c0,0.4-0.3,0.7-0.7,0.7S59.9,82.5,59.9,82.1z M60.1,84.1h1.1
		v6.3h-1.1V84.1z"/>
	<path class="st2" d="M66.8,86.4c0-0.8-0.3-1.6-1.3-1.6c-0.7,0-1.4,0.3-1.9,0.7l-0.4-0.7c0.6-0.4,1.5-0.8,2.5-0.8
		c1.5,0,2.2,1,2.2,2.6v3.8H67l-0.1-0.7h0c-0.6,0.5-1.3,0.9-2.1,0.9c-1.1,0-1.8-0.7-1.8-1.8C63,87.4,64.2,86.7,66.8,86.4z M65.1,89.7
		c0.6,0,1.1-0.3,1.7-0.8v-1.7c-2.1,0.3-2.8,0.8-2.8,1.6C64,89.4,64.5,89.7,65.1,89.7z"/>
</g>
<path class="st2" d="M51.2,69.1c11.2,0,20.3-9.1,20.3-20.3s-9.1-20.3-20.3-20.3c-11.2,0-20.3,9.1-20.3,20.3v0
	C30.8,60,39.9,69.1,51.2,69.1"/>
<path class="st0" d="M49.8,38.8c0,0-3.1-2.6-3.1,1.5v17.4c0,0,0,4.1,3.2,1.5l9.2-7.4c0,0,3.2-2.6,0-5.2L49.8,38.8z"/>
</svg>
