<svg id="Layer_1" data-name="Layer 1" xmlns="http://www.w3.org/2000/svg" viewBox="0 0 105.6 105.6"><defs><style>.cls-1{fill:#069c7d;}.cls-2{isolation:isolate;}.cls-3{fill:#fff;}</style></defs><title>media2</title><polyline class="cls-1" points="105.6 105.6 105.6 0 0 0 0 105.6"/><g class="cls-2"><path class="cls-3" d="M37.55,81.9h1.3l1.6,4.5,0.6,1.7h0.1l0.6-1.7,1.6-4.5h1.3v8.5h-1V85.7c0-.7.1-1.8,0.1-2.5h-0.1l-0.7,1.9-1.6,4.4h-0.6l-1.6-4.4-0.7-1.9h-0.1a20.9,20.9,0,0,1,.1,2.5v4.7h-1V81.9h0.1Z" transform="translate(0 0)"/><path class="cls-3" d="M49.15,83.9c1.6,0,2.5,1.1,2.5,2.9v0.6h-4.2a2.08,2.08,0,0,0,2.1,2.2,3,3,0,0,0,1.6-.5l0.4,0.7a4,4,0,0,1-2.1.6,3,3,0,0,1-3-3.3C46.45,85,47.75,83.9,49.15,83.9Zm1.6,2.8c0-1.3-.6-2-1.5-2a1.91,1.91,0,0,0-1.8,2h3.3Z" transform="translate(0 0)"/><path class="cls-3" d="M55.45,83.9a3.12,3.12,0,0,1,1.8.7l-0.1-1.1V81.1h1.1v9.2h-0.9l-0.1-.7h0a2.84,2.84,0,0,1-1.9.9c-1.6,0-2.6-1.2-2.6-3.3S54.05,83.9,55.45,83.9Zm0.1,5.7a2.06,2.06,0,0,0,1.6-.9V85.4a2.08,2.08,0,0,0-1.5-.7c-1,0-1.8,1-1.8,2.4C53.85,88.7,54.45,89.6,55.55,89.6Z" transform="translate(0 0)"/><path class="cls-3" d="M60.15,82.1a0.7,0.7,0,1,1,.7.7A0.68,0.68,0,0,1,60.15,82.1Zm0.2,2h1.1v6.3h-1.1V84.1Z" transform="translate(0 0)"/><path class="cls-3" d="M67.05,86.4a1.35,1.35,0,0,0-1.3-1.6,3.16,3.16,0,0,0-1.9.7l-0.4-.7A4.64,4.64,0,0,1,66,84c1.5,0,2.2,1,2.2,2.6v3.8h-0.9l-0.1-.7h0a3.33,3.33,0,0,1-2.1.9,1.68,1.68,0,0,1-1.8-1.8C63.25,87.4,64.45,86.7,67.05,86.4Zm-1.7,3.3a2.67,2.67,0,0,0,1.7-.8V87.2c-2.1.3-2.8,0.8-2.8,1.6A1,1,0,0,0,65.35,89.7Z" transform="translate(0 0)"/></g><path class="cls-3" d="M73.58,69.19V29.56H32V69.19H73.58ZM40.18,36.76H34.08V30.66h6.09v6.09h0Zm0,7.73H34.08V38.39h6.09v6.09h0Zm0,7.73H34.08V46.13h6.09v6.09h0Zm0,7.73H34.08V53.86h6.09V60h0Zm0,7.73H34.08V61.59h6.09v6.09h0ZM63.77,47.94H42V31.79H63.76V47.94h0Zm0,18.94H42V50.72H63.76V66.87h0Zm8.06-30.12H65.73V30.66h6.09v6.09h0Zm0,7.73H65.73V38.4h6.09v6.09h0Zm0,7.73H65.73V46.13h6.09v6.09h0Zm0,7.73H65.73V53.86h6.09V60h0Zm0,7.73H65.73V61.6h6.09v6.09h0Z" transform="translate(0 0)"/></svg>