<?xml version="1.0" encoding="utf-8"?>
<!-- Generator: Adobe Illustrator 19.2.0, SVG Export Plug-In . SVG Version: 6.00 Build 0)  -->
<svg version="1.1" id="Layer_1" xmlns="http://www.w3.org/2000/svg" xmlns:xlink="http://www.w3.org/1999/xlink" x="0px" y="0px"
	 viewBox="0 0 105.6 105.6" style="enable-background:new 0 0 105.6 105.6;" xml:space="preserve">
<style type="text/css">
	.st0{fill:#069C7D;}
	.st1{fill:#FFFFFF;}
	.st2{fill:none;stroke:#069C7D;stroke-width:3;stroke-linecap:round;stroke-linejoin:round;}
	.st3{enable-background:new    ;}
</style>
<title>menu_programm</title>
<polyline class="st0" points="0,0 0,105.6 105.6,105.6 105.6,0 "/>
<path class="st1" d="M53.5,68.8c10.4,0,18.8-8.4,18.8-18.8s-8.4-18.8-18.8-18.8S34.7,39.6,34.7,50l0,0
	C34.7,60.4,43.1,68.8,53.5,68.8"/>
<polyline class="st2" points="53.3,36.7 53.3,51.6 63,46.4 "/>
<g class="st3">
	<path class="st1" d="M26,84.1h2.6c1.9,0,3.1,0.6,3.1,2.5c0,1.8-1.3,2.6-3.1,2.6h-1.5v3.4H26V84.1z M28.5,88.4
		c1.5,0,2.2-0.5,2.2-1.7c0-1.2-0.7-1.6-2.2-1.6h-1.4v3.4H28.5z"/>
</g>
<g class="st3">
	<path class="st1" d="M33.3,86.3h0.9l0.1,1.1h0c0.4-0.8,1.1-1.3,1.8-1.3c0.3,0,0.5,0,0.7,0.1l-0.2,0.9c-0.2-0.1-0.3-0.1-0.6-0.1
		c-0.5,0-1.2,0.4-1.6,1.4v4h-1.1V86.3z"/>
</g>
<g class="st3">
	<path class="st1" d="M40.1,86.2c1.5,0,2.9,1.2,2.9,3.3c0,2.1-1.4,3.3-2.9,3.3c-1.5,0-2.9-1.2-2.9-3.3
		C37.2,87.4,38.6,86.2,40.1,86.2z M40.1,91.9c1.1,0,1.8-1,1.8-2.4c0-1.4-0.7-2.4-1.8-2.4c-1.1,0-1.8,1-1.8,2.4
		C38.3,90.9,39.1,91.9,40.1,91.9z"/>
	<path class="st1" d="M45.1,92.4L45.1,92.4c-0.3-0.2-0.6-0.6-0.6-1.1c0-0.5,0.4-0.9,0.7-1.2v-0.1c-0.4-0.3-0.8-0.9-0.8-1.7
		c0-1.4,1.1-2.2,2.4-2.2c0.3,0,0.7,0.1,0.9,0.2h2.2v0.8h-1.3c0.3,0.3,0.5,0.8,0.5,1.3c0,1.3-1,2.2-2.3,2.2c-0.3,0-0.7-0.1-0.9-0.2
		c-0.2,0.2-0.4,0.4-0.4,0.7c0,0.4,0.3,0.7,1.1,0.7h1.2c1.5,0,2.2,0.5,2.2,1.5c0,1.2-1.2,2.2-3.2,2.2c-1.5,0-2.6-0.6-2.6-1.7
		C44.2,93.3,44.6,92.8,45.1,92.4z M47,94.7c1.2,0,2-0.6,2-1.3c0-0.6-0.5-0.8-1.3-0.8h-1.1c-0.2,0-0.5,0-0.8-0.1
		c-0.5,0.3-0.6,0.7-0.6,1.1C45.1,94.3,45.8,94.7,47,94.7z M48.1,88.4c0-0.9-0.6-1.5-1.3-1.5s-1.3,0.5-1.3,1.5c0,0.9,0.6,1.5,1.3,1.5
		C47.5,89.9,48.1,89.3,48.1,88.4z"/>
</g>
<g class="st3">
	<path class="st1" d="M51.2,86.3h0.9l0.1,1.1h0c0.4-0.8,1.1-1.3,1.8-1.3c0.3,0,0.5,0,0.7,0.1l-0.2,0.9c-0.2-0.1-0.3-0.1-0.6-0.1
		c-0.5,0-1.2,0.4-1.6,1.4v4h-1.1V86.3z"/>
</g>
<g class="st3">
	<path class="st1" d="M58.9,88.6c0-0.8-0.3-1.6-1.3-1.6c-0.7,0-1.4,0.3-1.9,0.7L55.3,87c0.6-0.4,1.5-0.8,2.5-0.8
		c1.5,0,2.2,1,2.2,2.6v3.8h-0.9L59,91.8h0c-0.6,0.5-1.3,0.9-2.1,0.9c-1.1,0-1.8-0.7-1.8-1.8C55,89.6,56.2,88.9,58.9,88.6z
		 M57.2,91.9c0.6,0,1.1-0.3,1.7-0.8v-1.7c-2.1,0.3-2.8,0.8-2.8,1.6C56.1,91.6,56.6,91.9,57.2,91.9z"/>
	<path class="st1" d="M62,86.3h0.9l0.1,0.9h0c0.5-0.6,1.2-1.1,1.9-1.1c1,0,1.5,0.5,1.7,1.2c0.7-0.7,1.3-1.2,2.1-1.2
		c1.3,0,1.9,0.9,1.9,2.5v4h-1.1v-3.8c0-1.2-0.4-1.7-1.2-1.7c-0.5,0-1,0.3-1.6,1v4.5h-1.1v-3.8c0-1.2-0.4-1.7-1.2-1.7
		c-0.5,0-1,0.3-1.6,1v4.5H62V86.3z"/>
	<path class="st1" d="M72.7,86.3h0.9l0.1,0.9h0c0.5-0.6,1.2-1.1,1.9-1.1c1,0,1.5,0.5,1.7,1.2c0.7-0.7,1.3-1.2,2.1-1.2
		c1.3,0,1.9,0.9,1.9,2.5v4h-1.1v-3.8c0-1.2-0.4-1.7-1.2-1.7c-0.5,0-1,0.3-1.6,1v4.5h-1.1v-3.8c0-1.2-0.4-1.7-1.2-1.7
		c-0.5,0-1,0.3-1.6,1v4.5h-1.1V86.3z"/>
</g>
</svg>
