<?xml version="1.0" encoding="utf-8"?>
<!-- Generator: Adobe Illustrator 19.2.0, SVG Export Plug-In . SVG Version: 6.00 Build 0)  -->
<svg version="1.1" id="Layer_1" xmlns="http://www.w3.org/2000/svg" xmlns:xlink="http://www.w3.org/1999/xlink" x="0px" y="0px"
	 viewBox="0 0 105.6 105.6" style="enable-background:new 0 0 105.6 105.6;" xml:space="preserve">
<style type="text/css">
	.st0{fill:#069C7D;}
	.st1{enable-background:new    ;}
	.st2{fill:#FFFFFF;}
	.st3{fill:none;stroke:#069C7D;stroke-width:3;stroke-linecap:round;stroke-linejoin:round;}
	.st4{fill:none;stroke:#069C7D;stroke-width:2;}
</style>
<title>menu_unterlagen</title>
<polyline class="st0" points="105.6,105.6 105.6,0 0,0 0,105.6 "/>
<g class="st1">
	<path class="st2" d="M23.7,81.9h1.1v5c0,2,0.9,2.7,2,2.7c1.1,0,2-0.6,2-2.7v-5h1v5c0,2.7-1.3,3.7-3,3.7c-1.7,0-3-0.9-3-3.7V81.9z"
		/>
	<path class="st2" d="M32,84.1h0.9l0.1,0.9h0c0.6-0.6,1.2-1.1,2.1-1.1c1.3,0,1.9,0.9,1.9,2.5v4h-1.1v-3.8c0-1.2-0.4-1.7-1.2-1.7
		c-0.6,0-1.1,0.3-1.7,1v4.5H32V84.1z"/>
</g>
<g class="st1">
	<path class="st2" d="M39.2,84.9h-0.9v-0.8l1-0.1l0.1-1.8h0.9v1.8H42v0.9h-1.7v3.5c0,0.8,0.2,1.2,1,1.2c0.2,0,0.5-0.1,0.7-0.2
		l0.2,0.8c-0.3,0.1-0.8,0.2-1.2,0.2c-1.3,0-1.8-0.9-1.8-2.1V84.9z"/>
</g>
<g class="st1">
	<path class="st2" d="M45.6,83.9c1.6,0,2.5,1.1,2.5,2.9c0,0.2,0,0.4,0,0.6h-4.2c0.1,1.4,0.9,2.2,2.1,2.2c0.6,0,1.1-0.2,1.6-0.5
		l0.4,0.7c-0.5,0.3-1.2,0.6-2.1,0.6c-1.7,0-3-1.2-3-3.3S44.2,83.9,45.6,83.9z M47.2,86.7c0-1.3-0.6-2-1.5-2c-0.9,0-1.7,0.7-1.8,2
		H47.2z"/>
	<path class="st2" d="M49.7,84.1h0.9l0.1,1.1h0c0.4-0.8,1.1-1.3,1.8-1.3c0.3,0,0.5,0,0.7,0.1L52.9,85c-0.2-0.1-0.3-0.1-0.6-0.1
		c-0.5,0-1.2,0.4-1.6,1.4v4h-1.1V84.1z"/>
	<path class="st2" d="M54.2,81.2h1.1v8c0,0.3,0.1,0.5,0.3,0.5c0.1,0,0.1,0,0.2,0l0.1,0.8c-0.1,0.1-0.3,0.1-0.6,0.1
		c-0.8,0-1.1-0.5-1.1-1.4V81.2z"/>
	<path class="st2" d="M61,86.4c0-0.8-0.3-1.6-1.3-1.6c-0.7,0-1.4,0.3-1.9,0.7l-0.4-0.7c0.6-0.4,1.5-0.8,2.5-0.8c1.5,0,2.2,1,2.2,2.6
		v3.8h-0.9l-0.1-0.7h0c-0.6,0.5-1.3,0.9-2.1,0.9c-1.1,0-1.8-0.7-1.8-1.8C57.1,87.4,58.3,86.7,61,86.4z M59.3,89.7
		c0.6,0,1.1-0.3,1.7-0.8v-1.7c-2.1,0.3-2.8,0.8-2.8,1.6C58.2,89.4,58.7,89.7,59.3,89.7z"/>
</g>
<g class="st1">
	<path class="st2" d="M64.5,90.1L64.5,90.1c-0.3-0.2-0.6-0.6-0.6-1.1c0-0.5,0.4-0.9,0.7-1.2v-0.1c-0.4-0.3-0.8-0.9-0.8-1.7
		c0-1.4,1.1-2.2,2.4-2.2c0.3,0,0.7,0.1,0.9,0.2h2.2v0.8h-1.3c0.3,0.3,0.5,0.8,0.5,1.3c0,1.3-1,2.2-2.3,2.2c-0.3,0-0.7-0.1-0.9-0.2
		c-0.2,0.2-0.4,0.4-0.4,0.7c0,0.4,0.3,0.7,1.1,0.7h1.2c1.5,0,2.2,0.5,2.2,1.5c0,1.2-1.2,2.2-3.2,2.2c-1.5,0-2.6-0.6-2.6-1.7
		C63.6,91,63.9,90.5,64.5,90.1z M66.3,92.5c1.2,0,2-0.6,2-1.3c0-0.6-0.5-0.8-1.3-0.8H66c-0.2,0-0.5,0-0.8-0.1
		c-0.5,0.3-0.6,0.7-0.6,1.1C64.5,92.1,65.2,92.5,66.3,92.5z M67.5,86.2c0-0.9-0.6-1.5-1.3-1.5c-0.7,0-1.3,0.5-1.3,1.5
		c0,0.9,0.6,1.5,1.3,1.5C66.9,87.7,67.5,87.1,67.5,86.2z"/>
</g>
<g class="st1">
	<path class="st2" d="M72.7,83.9c1.6,0,2.5,1.1,2.5,2.9c0,0.2,0,0.4,0,0.6h-4.2c0.1,1.4,0.9,2.2,2.1,2.2c0.6,0,1.1-0.2,1.6-0.5
		l0.4,0.7c-0.5,0.3-1.2,0.6-2.1,0.6c-1.7,0-3-1.2-3-3.3S71.3,83.9,72.7,83.9z M74.3,86.7c0-1.3-0.6-2-1.5-2c-0.9,0-1.7,0.7-1.8,2
		H74.3z"/>
	<path class="st2" d="M76.8,84.1h0.9l0.1,0.9h0c0.6-0.6,1.2-1.1,2.1-1.1c1.3,0,1.9,0.9,1.9,2.5v4h-1.1v-3.8c0-1.2-0.4-1.7-1.2-1.7
		c-0.6,0-1.1,0.3-1.7,1v4.5h-1.1V84.1z"/>
</g>
<polygon class="st2" points="71.6,60.1 71.6,26.7 35.4,26.7 35.4,69 60.6,69 "/>
<line class="st3" x1="42.9" y1="42.1" x2="64.5" y2="42.1"/>
<line class="st3" x1="42.9" y1="48.3" x2="64.5" y2="48.3"/>
<line class="st3" x1="42.9" y1="54.4" x2="64.5" y2="54.4"/>
<line class="st3" x1="42.9" y1="60.5" x2="64.5" y2="60.5"/>
<polygon class="st2" points="61.5,68.2 62.5,58.1 70.9,60.3 "/>
<polygon class="st4" points="61.5,68.2 62.5,58.1 70.9,60.3 "/>
</svg>
