<?xml version="1.0" encoding="utf-8"?>
<!-- Generator: Adobe Illustrator 19.2.0, SVG Export Plug-In . SVG Version: 6.00 Build 0)  -->
<svg version="1.1" id="Layer_1" xmlns="http://www.w3.org/2000/svg" xmlns:xlink="http://www.w3.org/1999/xlink" x="0px" y="0px"
	 viewBox="0 0 105.6 105.6" style="enable-background:new 0 0 105.6 105.6;" xml:space="preserve">
<style type="text/css">
	.st0{fill:#069C7D;}
	.st1{enable-background:new    ;}
	.st2{fill:#FFFFFF;}
	.st3{fill:none;stroke:#FFFFFF;stroke-width:2;}
</style>
<title>menu_veranstaltungen</title>
<polyline class="st0" points="105.6,105.6 105.6,0 0,0 0,105.6 "/>
<g class="st1">
	<path class="st2" d="M9.4,81.9h1.1l1.4,4.6c0.3,1,0.5,1.8,0.8,2.8h0.1c0.3-1,0.5-1.8,0.8-2.8l1.4-4.6H16l-2.7,8.5h-1.3L9.4,81.9z"
		/>
</g>
<g class="st1">
	<path class="st2" d="M19.3,83.9c1.6,0,2.5,1.1,2.5,2.9c0,0.2,0,0.4,0,0.6h-4.2c0.1,1.4,0.9,2.2,2.1,2.2c0.6,0,1.1-0.2,1.6-0.5
		l0.4,0.7c-0.5,0.3-1.2,0.6-2.1,0.6c-1.7,0-3-1.2-3-3.3S17.8,83.9,19.3,83.9z M20.9,86.7c0-1.3-0.6-2-1.5-2c-0.9,0-1.7,0.7-1.8,2
		H20.9z"/>
</g>
<g class="st1">
	<path class="st2" d="M23.3,84.1h0.9l0.1,1.1h0c0.4-0.8,1.1-1.3,1.8-1.3c0.3,0,0.5,0,0.7,0.1L26.6,85c-0.2-0.1-0.3-0.1-0.6-0.1
		c-0.5,0-1.2,0.4-1.6,1.4v4h-1.1V84.1z"/>
</g>
<g class="st1">
	<path class="st2" d="M31,86.4c0-0.8-0.3-1.6-1.3-1.6c-0.7,0-1.4,0.3-1.9,0.7l-0.4-0.7c0.6-0.4,1.5-0.8,2.5-0.8c1.5,0,2.2,1,2.2,2.6
		v3.8h-0.9l-0.1-0.7h0c-0.6,0.5-1.3,0.9-2.1,0.9c-1.1,0-1.8-0.7-1.8-1.8C27.2,87.4,28.4,86.7,31,86.4z M29.3,89.7
		c0.6,0,1.1-0.3,1.7-0.8v-1.7c-2.1,0.3-2.8,0.8-2.8,1.6C28.2,89.4,28.7,89.7,29.3,89.7z"/>
	<path class="st2" d="M34.1,84.1H35l0.1,0.9h0c0.6-0.6,1.2-1.1,2.1-1.1c1.3,0,1.9,0.9,1.9,2.5v4h-1.1v-3.8c0-1.2-0.4-1.7-1.2-1.7
		c-0.6,0-1.1,0.3-1.7,1v4.5h-1.1V84.1z"/>
	<path class="st2" d="M41,88.9c0.5,0.4,1.1,0.7,1.8,0.7c0.8,0,1.2-0.4,1.2-1c0-0.6-0.7-0.9-1.4-1.2c-0.9-0.3-1.9-0.7-1.9-1.8
		c0-1,0.8-1.8,2.2-1.8c0.8,0,1.5,0.3,1.9,0.7l-0.5,0.7C44,85,43.5,84.7,43,84.7c-0.8,0-1.1,0.4-1.1,0.9c0,0.6,0.7,0.8,1.4,1.1
		c0.9,0.3,1.9,0.7,1.9,1.9c0,1-0.8,1.9-2.3,1.9c-0.9,0-1.7-0.4-2.3-0.9L41,88.9z"/>
</g>
<g class="st1">
	<path class="st2" d="M46.7,84.9h-0.9v-0.8l1-0.1l0.1-1.8h0.9v1.8h1.7v0.9h-1.7v3.5c0,0.8,0.2,1.2,1,1.2c0.2,0,0.5-0.1,0.7-0.2
		l0.2,0.8c-0.3,0.1-0.8,0.2-1.2,0.2c-1.3,0-1.8-0.9-1.8-2.1V84.9z"/>
</g>
<g class="st1">
	<path class="st2" d="M54.2,86.4c0-0.8-0.3-1.6-1.3-1.6c-0.7,0-1.4,0.3-1.9,0.7l-0.4-0.7c0.6-0.4,1.5-0.8,2.5-0.8
		c1.5,0,2.2,1,2.2,2.6v3.8h-0.9l-0.1-0.7h0c-0.6,0.5-1.3,0.9-2.1,0.9c-1.1,0-1.8-0.7-1.8-1.8C50.4,87.4,51.6,86.7,54.2,86.4z
		 M52.5,89.7c0.6,0,1.1-0.3,1.7-0.8v-1.7c-2.1,0.3-2.8,0.8-2.8,1.6C51.4,89.4,51.9,89.7,52.5,89.7z"/>
	<path class="st2" d="M57.3,81.2h1.1v8c0,0.3,0.1,0.5,0.3,0.5c0.1,0,0.1,0,0.2,0l0.1,0.8c-0.1,0.1-0.3,0.1-0.6,0.1
		c-0.8,0-1.1-0.5-1.1-1.4V81.2z"/>
</g>
<g class="st1">
	<path class="st2" d="M60.8,84.9h-0.9v-0.8l1-0.1l0.1-1.8h0.9v1.8h1.7v0.9h-1.7v3.5c0,0.8,0.2,1.2,1,1.2c0.2,0,0.5-0.1,0.7-0.2
		l0.2,0.8c-0.3,0.1-0.8,0.2-1.2,0.2c-1.3,0-1.8-0.9-1.8-2.1V84.9z"/>
</g>
<g class="st1">
	<path class="st2" d="M64.8,84.1h1.1v3.8c0,1.2,0.3,1.7,1.2,1.7c0.6,0,1.1-0.3,1.7-1.1v-4.5h1.1v6.3h-0.9l-0.1-1h0
		c-0.6,0.7-1.2,1.1-2.1,1.1c-1.3,0-1.9-0.9-1.9-2.5V84.1z"/>
	<path class="st2" d="M71.9,84.1h0.9l0.1,0.9h0c0.6-0.6,1.2-1.1,2.1-1.1c1.3,0,1.9,0.9,1.9,2.5v4h-1.1v-3.8c0-1.2-0.4-1.7-1.2-1.7
		c-0.6,0-1.1,0.3-1.7,1v4.5h-1.1V84.1z"/>
</g>
<g class="st1">
	<path class="st2" d="M79.4,90.1L79.4,90.1c-0.3-0.2-0.6-0.6-0.6-1.1c0-0.5,0.4-0.9,0.7-1.2v-0.1c-0.4-0.3-0.8-0.9-0.8-1.7
		c0-1.4,1.1-2.2,2.4-2.2c0.3,0,0.7,0.1,0.9,0.2h2.2v0.8h-1.3c0.3,0.3,0.5,0.8,0.5,1.3c0,1.3-1,2.2-2.3,2.2c-0.3,0-0.7-0.1-0.9-0.2
		c-0.2,0.2-0.4,0.4-0.4,0.7c0,0.4,0.3,0.7,1.1,0.7h1.2c1.5,0,2.2,0.5,2.2,1.5c0,1.2-1.2,2.2-3.2,2.2c-1.5,0-2.6-0.6-2.6-1.7
		C78.5,91,78.8,90.5,79.4,90.1z M81.2,92.5c1.2,0,2-0.6,2-1.3c0-0.6-0.5-0.8-1.3-0.8h-1.1c-0.2,0-0.5,0-0.8-0.1
		c-0.5,0.3-0.6,0.7-0.6,1.1C79.4,92.1,80.1,92.5,81.2,92.5z M82.4,86.2c0-0.9-0.6-1.5-1.3-1.5c-0.7,0-1.3,0.5-1.3,1.5
		c0,0.9,0.6,1.5,1.3,1.5C81.8,87.7,82.4,87.1,82.4,86.2z"/>
</g>
<g class="st1">
	<path class="st2" d="M87.7,83.9c1.6,0,2.5,1.1,2.5,2.9c0,0.2,0,0.4,0,0.6h-4.2c0.1,1.4,0.9,2.2,2.1,2.2c0.6,0,1.1-0.2,1.6-0.5
		l0.4,0.7c-0.5,0.3-1.2,0.6-2.1,0.6c-1.7,0-3-1.2-3-3.3S86.2,83.9,87.7,83.9z M89.2,86.7c0-1.3-0.6-2-1.5-2c-0.9,0-1.7,0.7-1.8,2
		H89.2z"/>
	<path class="st2" d="M91.7,84.1h0.9l0.1,0.9h0c0.6-0.6,1.2-1.1,2.1-1.1c1.3,0,1.9,0.9,1.9,2.5v4h-1.1v-3.8c0-1.2-0.4-1.7-1.2-1.7
		c-0.6,0-1.1,0.3-1.7,1v4.5h-1.1V84.1z"/>
</g>
<rect x="32.5" y="28.1" class="st2" width="43.8" height="39.5"/>
<rect x="35.4" y="41.3" class="st0" width="7" height="7"/>
<rect x="35.4" y="48.8" class="st0" width="7" height="7"/>
<rect x="35.4" y="56.3" class="st0" width="7" height="7"/>
<rect x="43.2" y="41.3" class="st0" width="7" height="7"/>
<rect x="43.2" y="48.8" class="st0" width="7" height="7"/>
<rect x="43.2" y="56.3" class="st0" width="7" height="7"/>
<rect x="51" y="41.3" class="st0" width="7" height="7"/>
<rect x="51" y="48.8" class="st0" width="7" height="7"/>
<rect x="51" y="56.3" class="st0" width="7" height="7"/>
<rect x="58.9" y="41.3" class="st0" width="7" height="7"/>
<rect x="58.9" y="48.8" class="st0" width="7" height="7"/>
<rect x="58.9" y="56.3" class="st0" width="7" height="7"/>
<rect x="66.7" y="41.3" class="st0" width="7" height="7"/>
<rect x="66.7" y="48.8" class="st0" width="7" height="7"/>
<rect x="66.7" y="56.3" class="st0" width="7" height="7"/>
<path class="st0" d="M41.3,21.3c-1.3,0-2.3,1-2.4,2.2c0,0,0,0.1,0,0.1v9.2c0,1.3,1,2.3,2.2,2.4c0,0,0.1,0,0.1,0h1.5
	c1.3,0,2.3-1,2.3-2.2c0,0,0-0.1,0-0.1v-9.2c0-1.3-1-2.3-2.2-2.4c0,0-0.1,0-0.1,0L41.3,21.3L41.3,21.3z"/>
<path class="st3" d="M41.3,21.3c-1.3,0-2.3,1-2.4,2.2c0,0,0,0.1,0,0.1v9.2c0,1.3,1,2.3,2.2,2.4c0,0,0.1,0,0.1,0h1.5
	c1.3,0,2.3-1,2.3-2.2c0,0,0-0.1,0-0.1v-9.2c0-1.3-1-2.3-2.2-2.4c0,0-0.1,0-0.1,0L41.3,21.3L41.3,21.3z"/>
<path class="st0" d="M66.5,21.3c-1.3,0-2.3,1-2.3,2.3c0,0,0,0,0,0.1v9.2c0,1.3,1,2.3,2.2,2.4c0,0,0.1,0,0.1,0h1.5
	c1.3,0,2.3-1,2.4-2.2c0,0,0-0.1,0-0.1v-9.2c0-1.3-1-2.3-2.2-2.4c0,0-0.1,0-0.1,0L66.5,21.3L66.5,21.3z"/>
<path class="st3" d="M66.5,21.3c-1.3,0-2.3,1-2.3,2.3c0,0,0,0,0,0.1v9.2c0,1.3,1,2.3,2.2,2.4c0,0,0.1,0,0.1,0h1.5
	c1.3,0,2.3-1,2.4-2.2c0,0,0-0.1,0-0.1v-9.2c0-1.3-1-2.3-2.2-2.4c0,0-0.1,0-0.1,0L66.5,21.3L66.5,21.3z"/>
</svg>
